<?xml version="1.0" encoding="UTF-8" standalone="no"?>
<!-- Created with Inkscape (http://www.inkscape.org/) -->

<svg
   xmlns:dc="http://purl.org/dc/elements/1.1/"
   xmlns:cc="http://creativecommons.org/ns#"
   xmlns:rdf="http://www.w3.org/1999/02/22-rdf-syntax-ns#"
   xmlns:svg="http://www.w3.org/2000/svg"
   xmlns="http://www.w3.org/2000/svg"
   xmlns:xlink="http://www.w3.org/1999/xlink"
   xmlns:sodipodi="http://sodipodi.sourceforge.net/DTD/sodipodi-0.dtd"
   xmlns:inkscape="http://www.inkscape.org/namespaces/inkscape"
   width="306.34735mm"
   height="306.34735mm"
   viewBox="0 0 306.34735 306.34735"
   version="1.1"
   id="svg8"
   inkscape:version="0.92.2 5c3e80d, 2017-08-06"
   sodipodi:docname="manday.svg"
   inkscape:export-filename="/Users/disorder/Projects/manday.png"
   inkscape:export-xdpi="96"
   inkscape:export-ydpi="96">
  <defs
     id="defs2">
    <inkscape:path-effect
       fuse_tolerance="0"
       vertical_pattern="false"
       prop_units="false"
       tang_offset="0"
       normal_offset="0"
       spacing="0"
       scale_y_rel="false"
       prop_scale="0.41652203"
       copytype="single_stretched"
       pattern="m 107.68618,19.073248 c 0,-2.760002 2.24,-5.000003 5,-5.000003 2.76,0 5,2.240001 5,5.000003 0,2.760001 -2.24,5.000003 -5,5.000003 -2.76,0 -5,-2.240002 -5,-5.000003 z"
       is_visible="true"
       id="path-effect875"
       effect="skeletal" />
    <inkscape:path-effect
       fuse_tolerance="0"
       vertical_pattern="false"
       prop_units="false"
       tang_offset="0"
       normal_offset="0"
       spacing="0"
       scale_y_rel="false"
       prop_scale="0.41652203"
       copytype="single_stretched"
       pattern="m 105.8723,16.55999 c 0,-2.760002 2.24,-5.000003 5,-5.000003 2.76,0 5,2.240001 5,5.000003 0,2.760001 -2.24,5.000003 -5,5.000003 -2.76,0 -5,-2.240002 -5,-5.000003 z"
       is_visible="true"
       id="path-effect5316"
       effect="skeletal" />
    <marker
       inkscape:stockid="Arrow1Send"
       orient="auto"
       refY="0"
       refX="0"
       id="Arrow1Send"
       style="overflow:visible"
       inkscape:isstock="true">
      <path
         id="path5021"
         d="M 0,0 5,-5 -12.5,0 5,5 Z"
         style="fill:#000000;fill-opacity:1;fill-rule:evenodd;stroke:none;stroke-width:1.00000003pt;stroke-opacity:1"
         transform="matrix(-0.2,0,0,-0.2,-1.2,0)"
         inkscape:connector-curvature="0" />
    </marker>
    <marker
       inkscape:stockid="Arrow1Lend"
       orient="auto"
       refY="0"
       refX="0"
       id="Arrow1Lend"
       style="overflow:visible"
       inkscape:isstock="true">
      <path
         id="path5009"
         d="M 0,0 5,-5 -12.5,0 5,5 Z"
         style="fill:#000000;fill-opacity:1;fill-rule:evenodd;stroke:none;stroke-width:1.00000003pt;stroke-opacity:1"
         transform="matrix(-0.8,0,0,-0.8,-10,0)"
         inkscape:connector-curvature="0" />
    </marker>
    <inkscape:path-effect
       effect="skeletal"
       id="path-effect5004"
       is_visible="true"
       pattern="M 0,5 C 0,2.24 2.24,0 5,0 7.76,0 10,2.24 10,5 10,7.76 7.76,10 5,10 2.24,10 0,7.76 0,5 Z"
       copytype="single_stretched"
       prop_scale="0.26458332"
       scale_y_rel="false"
       spacing="0"
       normal_offset="0"
       tang_offset="0"
       prop_units="false"
       vertical_pattern="false"
       fuse_tolerance="0" />
    <inkscape:path-effect
       effect="spiro"
       id="path-effect5002"
       is_visible="true" />
    <inkscape:path-effect
       effect="simplify"
       id="path-effect5000"
       is_visible="true"
       steps="1"
       threshold="0.005"
       smooth_angles="360"
       helper_size="0"
       simplify_individual_paths="false"
       simplify_just_coalesce="false"
       simplifyindividualpaths="false"
       simplifyJustCoalesce="false" />
    <inkscape:path-effect
       effect="skeletal"
       id="path-effect4996"
       is_visible="true"
       pattern="M 0,5 C 0,2.24 2.24,0 5,0 7.76,0 10,2.24 10,5 10,7.76 7.76,10 5,10 2.24,10 0,7.76 0,5 Z"
       copytype="single_stretched"
       prop_scale="0.26458332"
       scale_y_rel="false"
       spacing="0"
       normal_offset="0"
       tang_offset="0"
       prop_units="false"
       vertical_pattern="false"
       fuse_tolerance="0" />
    <inkscape:path-effect
       effect="spiro"
       id="path-effect4994"
       is_visible="true" />
    <inkscape:path-effect
       effect="simplify"
       id="path-effect4992"
       is_visible="true"
       steps="1"
       threshold="0.005"
       smooth_angles="360"
       helper_size="0"
       simplify_individual_paths="false"
       simplify_just_coalesce="false"
       simplifyindividualpaths="false"
       simplifyJustCoalesce="false" />
    <inkscape:path-effect
       effect="skeletal"
       id="path-effect4988"
       is_visible="true"
       pattern="M 0,5 C 0,2.24 2.24,0 5,0 7.76,0 10,2.24 10,5 10,7.76 7.76,10 5,10 2.24,10 0,7.76 0,5 Z"
       copytype="single_stretched"
       prop_scale="0.26458332"
       scale_y_rel="false"
       spacing="0"
       normal_offset="0"
       tang_offset="0"
       prop_units="false"
       vertical_pattern="false"
       fuse_tolerance="0" />
    <inkscape:path-effect
       effect="spiro"
       id="path-effect4986"
       is_visible="true" />
    <inkscape:path-effect
       effect="simplify"
       id="path-effect4984"
       is_visible="true"
       steps="1"
       threshold="0.005"
       smooth_angles="360"
       helper_size="0"
       simplify_individual_paths="false"
       simplify_just_coalesce="false"
       simplifyindividualpaths="false"
       simplifyJustCoalesce="false" />
    <inkscape:path-effect
       effect="skeletal"
       id="path-effect4940"
       is_visible="true"
       pattern="M 0,5 C 0,2.24 2.24,0 5,0 7.76,0 10,2.24 10,5 10,7.76 7.76,10 5,10 2.24,10 0,7.76 0,5 Z"
       copytype="single_stretched"
       prop_scale="0.26458332"
       scale_y_rel="false"
       spacing="0"
       normal_offset="0"
       tang_offset="0"
       prop_units="false"
       vertical_pattern="false"
       fuse_tolerance="0" />
    <inkscape:path-effect
       effect="simplify"
       id="path-effect4938"
       is_visible="true"
       steps="1"
       threshold="0.000408163"
       smooth_angles="360"
       helper_size="0"
       simplify_individual_paths="false"
       simplify_just_coalesce="false"
       simplifyindividualpaths="false"
       simplifyJustCoalesce="false" />
    <inkscape:path-effect
       fuse_tolerance="0"
       vertical_pattern="false"
       prop_units="false"
       tang_offset="0"
       normal_offset="0"
       spacing="0"
       scale_y_rel="false"
       prop_scale="0.41652203"
       copytype="single_stretched"
       pattern="m 108.75948,28.235643 c 0,-2.760002 2.24,-5.000003 5,-5.000003 2.76,0 5,2.240001 5,5.000003 0,2.760001 -2.24,5.000003 -5,5.000003 -2.76,0 -5,-2.240002 -5,-5.000003 z"
       is_visible="true"
       id="path-effect4912"
       effect="skeletal" />
    <linearGradient
       inkscape:collect="always"
       id="linearGradient4883">
      <stop
         style="stop-color:#1f91c7;stop-opacity:1"
         offset="0"
         id="stop4879" />
      <stop
         style="stop-color:#1fbcff;stop-opacity:0"
         offset="1"
         id="stop4881" />
    </linearGradient>
    <inkscape:path-effect
       fuse_tolerance="0"
       vertical_pattern="false"
       prop_units="false"
       tang_offset="0"
       normal_offset="0"
       spacing="0"
       scale_y_rel="false"
       prop_scale="0.26458333"
       copytype="single_stretched"
       pattern="m 105.04437,31.844814 c 0,-2.760002 2.24,-5.000003 5.00001,-5.000003 2.76,0 5,2.240001 5,5.000003 0,2.760001 -2.24,5.000003 -5,5.000003 -2.76001,0 -5.00001,-2.240002 -5.00001,-5.000003 z"
       is_visible="true"
       id="path-effect4877"
       effect="skeletal" />
    <inkscape:path-effect
       effect="skeletal"
       id="path-effect4694"
       is_visible="true"
       pattern="m 0.44840591,9.756293 c 0,-2.76 2.24000009,-5 5.00000009,-5 2.76,0 5,2.24 5,5 0,2.76 -2.24,5 -5,5 -2.76,0 -5.00000009,-2.24 -5.00000009,-5 z"
       copytype="single_stretched"
       prop_scale="0.26458333"
       scale_y_rel="false"
       spacing="0"
       normal_offset="0"
       tang_offset="0"
       prop_units="false"
       vertical_pattern="false"
       fuse_tolerance="0" />
    <inkscape:path-effect
       effect="skeletal"
       id="path-effect4643"
       is_visible="true"
       pattern="m 6.8770343,18.34233 c 0,-2.760002 2.2400003,-5.000003 4.9999997,-5.000003 2.76,0 5.000001,2.240001 5.000001,5.000003 0,2.760001 -2.240001,5.000003 -5.000001,5.000003 -2.7599994,0 -4.9999997,-2.240002 -4.9999997,-5.000003 z"
       copytype="single_stretched"
       prop_scale="0.41652203"
       scale_y_rel="false"
       spacing="0"
       normal_offset="0"
       tang_offset="0"
       prop_units="false"
       vertical_pattern="false"
       fuse_tolerance="0" />
    <linearGradient
       inkscape:collect="always"
       xlink:href="#linearGradient4883"
       id="linearGradient4889"
       x1="100.54166"
       y1="323.45834"
       x2="100.54166"
       y2="111.79166"
       gradientUnits="userSpaceOnUse"
       gradientTransform="matrix(1.3611883,0,0,1.3611883,-38.386826,-84.067951)" />
  </defs>
  <sodipodi:namedview
     id="base"
     pagecolor="#ffffff"
     bordercolor="#666666"
     borderopacity="1.0"
     inkscape:pageopacity="0.0"
     inkscape:pageshadow="2"
     inkscape:zoom="1.1829896"
     inkscape:cx="516.33611"
     inkscape:cy="840.33045"
     inkscape:document-units="mm"
     inkscape:current-layer="layer3"
     showgrid="false"
     inkscape:window-width="1680"
     inkscape:window-height="932"
     inkscape:window-x="0"
     inkscape:window-y="0"
     inkscape:window-maximized="1"
     fit-margin-top="0"
     fit-margin-left="0"
     fit-margin-right="0"
     fit-margin-bottom="0">
    <inkscape:grid
       type="xygrid"
       id="grid4690"
       originx="55.834533"
       originy="89.523411" />
  </sodipodi:namedview>
  <metadata
     id="metadata5">
    <rdf:RDF>
      <cc:Work
         rdf:about="">
        <dc:format>image/svg+xml</dc:format>
        <dc:type
           rdf:resource="http://purl.org/dc/dcmitype/StillImage" />
        <dc:title />
      </cc:Work>
    </rdf:RDF>
  </metadata>
  <g
     inkscape:groupmode="layer"
     id="layer3"
     inkscape:label="tlo"
     style="display:inline"
     transform="translate(55.834532,-80.176073)">
    <circle
       style="fill:url(#linearGradient4889);fill-opacity:1;stroke:#ffffff;stroke-width:8.8381319;stroke-linejoin:round;stroke-miterlimit:4;stroke-dasharray:none;stroke-opacity:1"
       id="path4807"
       cx="97.339142"
       cy="233.34975"
       r="148.75461" />
  </g>
  <g
     inkscape:label="Layer 1"
     inkscape:groupmode="layer"
     id="layer1"
     style="display:none"
     transform="translate(55.834532,-80.176073)" />
  <g
     inkscape:groupmode="layer"
     id="layer2"
     inkscape:label="Layer 2"
     style="display:inline"
     transform="translate(55.834532,-80.176073)">
    <ellipse
       style="fill:none;fill-opacity:1;stroke:#ffffff;stroke-width:8.9;stroke-miterlimit:4;stroke-dasharray:none;stroke-opacity:1"
       id="path888"
       cx="209.3488"
       cy="108.59978"
       rx="5.894496"
       ry="16.718912"
       transform="rotate(30.3)" />
    <path
       style="fill:#ffffff;fill-opacity:1;stroke:#ffffff;stroke-width:6.00000017;stroke-linecap:butt;stroke-linejoin:round;stroke-miterlimit:4;stroke-dasharray:none;stroke-opacity:1"
       d="m 35.985796,155.51622 c -0.200547,0 -0.394502,-0.36836 -0.578062,-1.05575 -0.04764,-0.20509 -0.0851,-0.44997 -0.144879,-0.56573 -0.01929,-0.008 -0.117258,-0.12188 -0.199355,-0.45854 -0.04061,-0.24093 -0.04949,-0.40745 -0.06666,-0.45379 -0.03637,-0.22152 -0.07218,-0.45629 -0.107366,-0.70383 -0.06131,-0.4313 -0.120775,-0.90137 -0.178187,-1.40766 -0.17862,-1.57518 -0.337407,-3.50104 -0.470465,-5.70107 -0.08079,-1.33576 -0.152091,-2.7726 -0.212589,-4.29339 0,0 0,0 0,0 -0.05123,-1.25196 -0.08311,-2.70658 0.106721,-4.24274 0.09828,-0.63906 0.242754,-1.12365 0.346636,-1.47503 0,0 10e-7,0 10e-7,0 0.100063,-0.36645 0.202331,-0.72123 0.303996,-1.07335 0.129516,-0.4486 0.266083,-0.91107 0.413338,-1.38001 0.128018,-0.40193 0.243195,-0.68743 0.290105,-0.86823 0,0 -1e-6,0 -1e-6,0 -0.08401,0.32465 -0.06614,0.0643 0.189704,-0.73461 0,0 3e-6,-10e-6 3e-6,-10e-6 0.288346,-0.5862 0.495755,-0.86503 0.506788,-0.88633 0,0 0,0 0,0 0.0385,-0.069 0.07904,-0.15539 0.124919,-0.25766 0,0 -4e-6,10e-6 -4e-6,10e-6 -0.193501,0.42474 -0.113804,0.18654 0.337058,-0.67626 0,0 1e-5,-2e-5 1e-5,-2e-5 0.55681,-0.60183 0.742393,-0.72747 0.462492,-0.45732 -0.169846,0.22062 -0.134807,0.13485 0.148735,-0.21325 0.251754,-0.29854 0.58225,-0.57616 0.991338,-0.81703 0.106946,-0.0596 0.216304,-0.11699 0.328031,-0.17199 0.08565,-0.0422 0.172547,-0.0828 0.260657,-0.12198 0.464348,-0.18309 0.635801,-0.2177 0.49404,-0.17032 -0.285633,0.10646 -0.06018,-0.007 0.701969,-0.25246 0.956153,-0.0896 1.086679,-0.0281 0.36034,0.0143 -0.357343,0.14016 -0.246564,0.0384 0.389815,-0.17247 0.576919,-0.13412 0.754297,-0.13651 0.508986,-0.0912 0,0 -4e-6,1e-5 -4e-6,1e-5 -0.289734,0.0883 -0.08879,-0.007 0.622632,-0.17708 0.739,-0.0558 0.935201,-0.009 0.571087,-0.001 -0.0876,0.004 0.01483,-0.0356 0.301157,-0.0715 0.05653,-0.0411 0.396318,-0.1153 1.016066,-0.14402 0,0 5e-6,0 5e-6,0 0.564125,0.0221 0.843055,0.0831 0.855078,0.0841 0,0 10e-7,0 10e-7,0 0.01987,0.009 0.159018,8.2e-4 0.412872,0.005 0.390638,0.007 0.778136,0.0137 1.162293,0.0215 0,0 2e-6,0 2e-6,0 0.05197,-0.002 0.345618,-0.0175 0.875081,0.0281 0.532144,0.0986 0.796985,0.19153 0.819061,0.21142 0.179073,0.0536 0.47448,0.12958 0.879313,0.27638 0.556279,0.2398 0.687501,0.35036 0.418835,0.22365 0,0 0,0 0,0 -0.07391,-0.006 0.217553,0.0395 0.804411,0.26074 0,0 4e-6,0 4e-6,0 0.494946,0.23452 0.755137,0.41603 0.827694,0.47104 0.335954,0.19007 0.830225,0.46341 1.40972,0.93084 l 0,0 4e-6,1e-5 0,0 c 0.378227,0.34384 0.512027,0.52723 0.488295,0.5108 l 0,0 c 0.131092,0.14773 0.431927,0.37435 0.812724,0.73946 l 0,0 c 0,0 1e-6,0 1e-6,0 0.196797,0.1948 0.356385,0.37309 0.48716,0.52533 l 0,0 c 0,0 1e-6,0 1e-6,0 0.08634,0.0998 0.177263,0.20419 0.273963,0.31778 l 0,0 c 0,0 -7e-6,-2e-5 -7e-6,-2e-5 -0.160085,-0.41282 -0.04809,-0.26879 0.294501,0.43509 l 1e-6,0 1.5e-5,4e-5 0,0 c -0.02391,-0.0139 -0.04291,-0.0377 -0.06301,-0.0568 0,0 -2e-6,0 -2e-6,0 -0.01947,-0.0183 -0.03896,-0.0491 -0.05898,-0.0483 -0.01011,0.003 -0.0017,0.008 -4.2e-5,0.0115 0.0055,0.0109 0.01384,0.0206 0.02237,0.0307 0.04361,0.0518 0.103304,0.11167 0.169667,0.18153 l 0,0 c 0,0 -10e-7,0 -10e-7,0 -0.04635,-0.022 0.121573,0.1208 0.416643,0.46728 l 0,0 c 0.436557,0.58056 0.73366,1.12729 0.962022,1.52221 l 0,0 10e-7,1e-5 0,0 c 0.04074,0.0726 0.07923,0.13836 0.11702,0.19712 l 0,0 c -0.02504,-0.0183 0.201909,0.21558 0.531011,0.73538 l 0,0 c 0.293829,0.68028 0.302334,1.01089 0.165528,0.65924 -0.243717,-0.2603 -0.02498,-0.10271 0.374875,0.51957 0.244887,0.571 0.266307,0.84677 0.243928,0.84664 -2.51e-4,0.083 -0.0076,0.15047 -0.01516,0.20144 0,0 0,0 0,0 0.02556,0.0495 0.0489,0.0963 0.07301,0.14005 0.0087,0.0157 0.01371,0.0325 0.02704,0.0408 0.01049,3.8e-4 0.01522,-0.006 0.02262,-0.006 0.01563,-4.9e-4 0.03514,0.0235 0.04875,0.0416 0,0 2e-6,0 2e-6,0 0.184017,0.24445 0.221225,0.42242 0.210646,0.49374 0.235566,0.63419 0.176415,0.82247 0.155006,0.78279 -0.02984,-0.002 0.01434,0.0781 0.0892,0.23465 0,0 -4e-6,0 -4e-6,0 -0.182544,-0.30831 -0.07097,-0.13546 0.233337,0.52397 0.03879,0.58752 -0.04164,0.57872 -0.05424,0.45268 -0.281138,-0.53014 0.02468,-0.19141 0.228609,0.72447 -0.531453,1.28227 -0.606536,0.97881 -0.193519,-0.15637 -0.727125,-0.67717 -0.500302,-0.59844 0.182691,0.20921 -0.204646,1.09209 -0.313813,1.10807 -0.12049,0.43984 l 0,0 c 0,0 5e-6,0 5e-6,0 0.447745,0.11023 -0.01211,0.007 -1.029677,-0.44557 l -10e-7,0 c -0.01445,-0.0857 0.306457,-0.0783 0.843956,0.06 l 1e-6,0 c 0.240035,0.83836 0.246899,0.92773 0.151977,0.34509 l 0,0 c -0.1424,-0.29555 -0.03458,-0.19255 0.201548,0.39243 -0.0025,0.008 -0.0025,0.008 -0.0025,0.008 l -10e-7,0 c -0.02263,0.0185 -0.102366,0.0218 -0.124465,0.0411 -0.0025,0.008 -0.0025,0.008 -0.0025,0.008 -0.002,0.003 -0.0026,0.007 -0.0022,0.009 0,0 0,0 0,0 0.0093,0.0228 0.06675,0.0295 0.07617,0.052 0,0 0,10e-6 0,10e-6 0.0015,0.005 0.0032,0.0111 0.0043,0.0181 0,0 0,0 0,0 4.52e-4,0.003 7.9e-4,0.006 9.57e-4,0.009 0,0 0,0 0,0 0.0011,0.0198 -0.005,0.0395 -0.03234,0.0405 -0.01322,-6.5e-4 -0.01974,-0.006 -0.02407,-0.0127 -0.008,-0.014 -0.0073,-0.0365 -0.0069,-0.0493 3.88e-4,-0.0102 6.99e-4,-0.0149 -0.0029,-0.007 -0.02043,0.065 -0.03621,0.12809 -0.05536,0.1877 0,0 1e-6,0 1e-6,0 0.03081,-0.018 -0.03512,0.18477 -0.153872,0.39728 l 0,0 c -0.35482,0.18237 -0.544597,0.0686 -0.589876,6.5e-4 -0.06598,-0.0991 0.07423,-0.29646 0.04536,-0.42334 l 0.0012,-0.002 c -0.07001,0.12017 -0.166969,0.19452 -0.143788,0.0503 0,0 0,-1e-5 0,-1e-5 -0.02105,-0.0477 -0.04836,-0.10764 -0.06793,-0.16571 -0.0036,-0.007 -0.01095,-0.002 -0.01848,0.009 -0.0095,0.0136 -0.01931,0.0362 -0.0203,0.0505 -8.26e-4,0.007 5.29e-4,0.0121 0.0053,0.0127 0.01783,-0.001 0.01151,-0.0217 -0.0023,-0.0429 0,0 0,0 0,0 -0.0021,-0.003 -0.0045,-0.007 -0.0069,-0.01 0,0 0,0 0,0 -0.0057,-0.008 -0.0121,-0.0148 -0.01827,-0.0203 0,0 0,0 0,0 -0.0266,-0.0255 -0.101141,-0.0367 -0.127558,-0.0656 0,0 0,0 0,0 -0.0044,-0.004 -0.0078,-0.009 -0.0097,-0.0139 0,0 0,0 0,0 0.009,-0.0357 0.07281,-0.0471 0.07928,-0.0743 l 0,0 c -1e-6,0 0,0 0,0 0.281247,0.5359 0.153009,0.4317 -0.0072,0.10244 l 0,0 c -0.111793,-0.59847 -0.04429,-0.62788 0.151976,0.20429 l 10e-7,0 c 0.447307,0.0778 0.65047,0.14999 0.535033,0.1209 l 0,0 c -1.128603,-0.38311 -1.600029,-0.75186 -1.143409,-0.78802 0,0 5e-6,0 5e-6,0 l 0,0 c 0.218883,-0.94022 0.314695,-0.79893 0.09082,0.0176 0.742523,0.74958 0.445049,0.66418 -0.239963,-0.0723 0.394759,-1.33779 0.516048,-1.50614 0.01779,-0.43791 0.340988,0.8342 -0.172669,0.24132 -0.405372,-0.40167 -0.06397,-0.45839 -0.03548,-0.63282 -0.05425,-0.39192 0.276934,0.53257 0.27605,0.66266 0.02203,0.24245 0,0 -5e-6,0 -5e-6,0 -0.06897,-0.0676 -0.188777,-0.21288 -0.333453,-0.46921 -0.229492,-0.4967 -0.266013,-0.77844 -0.267638,-0.62487 -0.17267,-0.25126 -0.270017,-0.44323 -0.340309,-0.47917 0,0 0,0 0,0 -0.0053,-0.003 -0.0156,-0.0101 -0.02108,0.008 -0.0021,0.009 -0.0013,0.025 -0.0035,0.0339 -0.0083,0.006 -0.0053,0.002 -0.0054,7.9e-4 -4.61e-4,-0.004 0.0031,-0.007 0.0082,-0.008 0,0 0,0 0,0 -0.101782,-0.18865 -0.225815,-0.42594 -0.327597,-0.61459 -0.177548,-0.40869 -0.199669,-0.59339 -0.178726,-0.42024 0.23959,0.31514 -0.05643,0.11453 -0.470423,-0.46581 -0.329722,-0.67644 -0.35238,-0.94854 -0.257126,-0.60766 l 0,0 c 0.08767,0.10827 0.02273,0.14795 -0.314295,-0.25 l 0,0 c -0.109855,-0.12153 -0.211545,-0.24387 -0.30562,-0.36591 l 0,0 -10e-7,0 0,0 c -0.357974,-0.45063 -0.666801,-0.89163 -0.93991,-1.15237 l 0,0 c 0.03075,0.0342 -0.106791,-0.0418 -0.428665,-0.37734 0,0 -3e-6,0 -3e-6,0 l 0,0 c -0.136436,-0.16173 -0.284928,-0.3379 -0.436241,-0.53051 -0.02946,-0.0375 -0.05951,-0.0756 -0.08745,-0.11581 -0.0088,-0.0126 -0.02442,-0.0272 -0.02202,-0.0394 0.0081,-0.0173 0.01509,-0.003 0.02181,-0.001 0,0 10e-7,0 10e-7,0 0.0064,0.001 0.01133,0.007 0.01995,0.003 l 0.0011,-9.2e-4 1.4e-5,3e-5 10e-7,0 c 0.318165,0.63575 0.356149,0.73231 0.146205,0.26658 0,0 -1e-5,-3e-5 -1e-5,-3e-5 l 0,0 c -0.08326,-0.0796 -0.174556,-0.16518 -0.272782,-0.25861 0,0 -2e-6,0 -2e-6,0 l 0,0 c -0.141246,-0.13249 -0.259504,-0.24345 -0.358142,-0.31929 0,0 0,0 0,0 l 0,0 c -0.152131,-0.12299 -0.460258,-0.31336 -0.877885,-0.6682 l 0,0 c -0.317492,-0.28504 -0.422093,-0.42253 -0.357006,-0.33379 l 0,0 1e-6,0 0,0 c -0.118109,-0.10046 -0.440281,-0.21691 -0.914868,-0.47682 -0.346139,-0.17714 -0.4855,-0.28311 -0.440258,-0.23278 0,0 1e-6,0 1e-6,0 0.121947,0.0297 -0.121337,0.0192 -0.674858,-0.16158 0,0 -4e-6,0 -4e-6,0 -0.557589,-0.23101 -0.691304,-0.33313 -0.426471,-0.19865 -0.07675,-0.0281 -0.278831,-0.0606 -0.599967,-0.14592 -0.327808,-0.0772 -0.405993,-0.12445 -0.237575,-0.0701 0.113594,-0.005 -0.02173,0.0297 -0.392861,0.0281 -2e-6,0 -4e-6,0 -4e-6,0 -0.384157,0.008 -0.771655,0.015 -1.162293,0.0215 -0.09648,0.004 -0.311361,0.0162 -0.643762,0.005 0,0 -4e-6,0 -4e-6,0 -0.480462,-0.0264 -0.690375,-0.0789 -0.624191,-0.0567 0,0 1e-6,0 1e-6,0 0.222006,-0.0272 0.210093,0.0158 -0.124635,0.0604 -0.03467,0.0352 -0.256016,0.0991 -0.671398,0.14635 -0.712937,0.0507 -0.874876,0.003 -0.485541,-0.001 0.42337,-0.12778 0.350821,-0.0547 -0.222672,0.10446 0,0 -8e-6,1e-5 -8e-6,1e-5 -0.522247,0.11464 -0.638282,0.10244 -0.33632,0.0496 0.269378,-0.10212 0.06604,0.0256 -0.666807,0.24983 -1.000661,0.10379 -1.163929,0.0512 -0.48497,0.0143 0.523412,-0.19766 0.580519,-0.16808 0.068,0.0291 -0.418445,0.15811 -0.542161,0.17303 -0.35127,0.11122 -0.03676,0.0163 -0.07371,0.0337 -0.110831,0.052 -0.04842,0.0239 -0.09703,0.0494 -0.145777,0.0763 0.08577,-0.0614 0.133854,-0.0939 0.146032,-0.11319 0.131484,-0.17093 0.05526,-0.0404 -0.273919,0.34983 -0.469349,0.47231 -0.563556,0.4862 -0.171488,0.10574 0,0 7e-6,-2e-5 7e-6,-2e-5 0.332177,-0.70668 0.399487,-0.71611 0.125753,-0.11321 0,0 -6e-6,2e-5 -6e-6,2e-5 -0.08379,0.18567 -0.182065,0.38205 -0.297735,0.58696 0,0 -2e-6,0 -2e-6,0 -0.25891,0.45816 -0.406577,0.60861 -0.33852,0.52133 0,0 2e-6,-10e-6 2e-6,-10e-6 0.119032,-0.48724 0.159797,-0.39814 -0.0216,0.25074 0,0 -2e-6,1e-5 -2e-6,1e-5 -0.139822,0.44114 -0.27163,0.7539 -0.343863,0.96175 -0.146329,0.42505 -0.2897,0.86054 -0.431972,1.29455 -0.115342,0.35249 -0.225351,0.68452 -0.330406,1.01405 0,0 0,0 0,0 -0.134958,0.45914 -0.259153,0.76269 -0.286913,0.94211 -0.220107,1.12822 -0.264771,2.40881 -0.315933,3.6402 0,0 0,0 0,0 -0.0605,1.52079 -0.131801,2.95763 -0.212589,4.29339 -0.133058,2.20003 -0.291846,4.12589 -0.470465,5.70107 -0.05741,0.50629 -0.116873,0.97636 -0.178187,1.40766 -0.03519,0.24754 -0.07099,0.48231 -0.107366,0.70383 -0.01723,0.19718 -0.05475,0.26505 -0.06666,0.25005 -0.03867,0.0138 0.0055,0.22218 0.01196,0.52684 -0.02169,0.32327 -0.09819,0.55865 -0.144879,0.70117 -0.18356,0.68739 -0.377516,1.05575 -0.578062,1.05575 z"
       id="path4641"
       inkscape:connector-curvature="0"
       inkscape:path-effect="#path-effect4643"
       inkscape:original-d="m 35.985796,155.51622 c 0,-0.35192 0,-0.70383 0,-1.05575 0,-0.21115 0.01975,-0.42271 0,-0.63345 -0.0155,-0.16557 -0.08498,-0.32736 -0.105655,-0.49269 -0.01455,-0.11694 0,-0.23461 0,-0.35192 0,-0.23461 0,-0.46922 0,-0.70383 0,-0.46922 0,-0.93844 0,-1.40766 0,-1.90036 0,-3.80071 0,-5.70107 0,-1.43113 0,-2.86226 0,-4.29339 0,-1.90898 -0.07546,-2.07896 0.211327,-3.94147 0.06828,-0.4434 0.565128,-2.0287 0.633976,-2.25227 0.137422,-0.44625 0.27651,-0.89227 0.422655,-1.33728 0.10042,-0.30579 0.224831,-0.60806 0.316984,-0.91499 0.04885,-0.16267 0.0354,-0.33353 0.105655,-0.49268 0.107035,-0.24242 0.289457,-0.46725 0.422655,-0.70383 0.07822,-0.13895 0.147323,-0.28018 0.211327,-0.42231 0.04171,-0.0926 0.04071,-0.19501 0.105655,-0.28153 0.07876,-0.10498 0.223656,-0.18207 0.31699,-0.28153 0.08349,-0.089 0.13317,-0.19044 0.211327,-0.28154 0.12408,-0.14465 0.233311,-0.24681 0.422653,-0.35192 0.135286,-0.0752 0.27612,-0.14608 0.422648,-0.21115 0.131054,-0.0582 0.287586,-0.0867 0.422655,-0.14077 0.108887,-0.0436 0.194881,-0.11757 0.316984,-0.14076 0.135456,-0.0258 0.289001,0.0297 0.422655,0 0.194831,-0.0433 0.340643,-0.15559 0.528311,-0.21115 0.132716,-0.0393 0.286681,-0.0364 0.422655,-0.0704 0.147475,-0.0369 0.26889,-0.11795 0.422652,-0.14077 0.171909,-0.0254 0.355051,0.021 0.528314,0 0.06763,-0.009 0.876901,-0.21114 1.056628,-0.21114 0.249052,0 0.491452,0.0566 0.739639,0.0704 0.1755,0.0101 0.352209,0 0.528317,0 0.38743,0 0.774863,0 1.162293,0 0.211326,0 0.426058,-0.0252 0.633974,0 0.186612,0.0227 0.353235,0.0921 0.528318,0.14077 0.247602,0.0687 0.504158,0.12563 0.73964,0.21115 0.154599,0.0561 0.26805,0.15498 0.422653,0.21115 0.235482,0.0856 0.511192,0.11757 0.739638,0.21116 0.234277,0.096 0.422649,0.23461 0.633976,0.35191 0.369079,0.20487 0.852507,0.45163 1.162294,0.70383 0.160835,0.13094 0.273265,0.28548 0.422652,0.4223 0.265291,0.24298 0.580007,0.46085 0.845304,0.70383 0.149383,0.13683 0.286294,0.27958 0.422652,0.42231 0.856918,0.89698 -0.256176,-0.24225 0.633976,0.77421 0.127973,0.14614 0.298136,0.27485 0.422655,0.42231 0.434618,0.51467 0.587575,0.81282 0.950966,1.33729 0.06601,0.0953 0.13589,0.18942 0.211321,0.28152 0.135986,0.16606 0.32295,0.31558 0.422653,0.49269 0.114026,0.20252 0.0973,0.43093 0.211327,0.63345 0.0997,0.17711 0.322944,0.31558 0.422649,0.49269 0.114026,0.20252 0.132565,0.4236 0.211327,0.63344 0.408888,1.08947 -0.01926,-0.10889 0.528317,0.98537 0.113592,0.22698 0.108112,0.47467 0.211322,0.70383 0.0545,0.12097 0.136609,0.2358 0.211327,0.35193 0.03099,0.0482 0.09589,0.0888 0.105655,0.14076 0.02619,0.13968 -0.02336,0.28239 0,0.4223 0.03144,0.1886 0.31699,0.38179 0.31699,0.56307 0,0.0525 -0.12476,0.0899 -0.105655,0.14077 0.02415,0.0643 0.191787,0.0756 0.211327,0.14077 0.02184,0.0728 -0.105655,0.13695 -0.105655,0.21114 0,0.35557 0.0812,0.0541 0.211327,0.14077 0.02491,0.0166 -0.01115,0.0481 0,0.0704 0.02491,0.0497 0.105655,0.0882 0.105655,0.14077 0,0.0331 -0.105655,0.0373 -0.105655,0.0704 0,0.0332 0.08339,0.0407 0.105655,0.0704 0.01568,0.021 0.03521,0.0704 0,0.0704 -0.03524,0 0,-0.0938 0,-0.0704 0,0.0339 0.0172,0.3366 0,0.35192 -0.08967,0.0797 -0.211325,0.14076 -0.31699,0.21114" />
    <path
       style="fill:none;fill-opacity:1;stroke:#ffffff;stroke-width:8.9;stroke-miterlimit:4;stroke-dasharray:none;stroke-opacity:1"
       id="path4688"
       sodipodi:type="arc"
       sodipodi:cx="97.04187"
       sodipodi:cy="243.07791"
       sodipodi:rx="29.477835"
       sodipodi:ry="16.193415"
       sodipodi:start="5.4367006"
       sodipodi:end="4.0683625"
       d="m 116.57447,230.94976 a 29.477835,16.193415 0 0 1 7.818,18.1681 29.477835,16.193415 0 0 1 -28.533598,10.14042 29.477835,16.193415 0 0 1 -26.961283,-11.36485 29.477835,16.193415 0 0 1 10.445193,-17.76514"
       sodipodi:open="true" />
    <path
       style="fill:none;fill-opacity:1;stroke:#ffffff;stroke-width:16.9353466;stroke-miterlimit:4;stroke-dasharray:none;stroke-opacity:1"
       id="path886"
       sodipodi:type="arc"
       sodipodi:cx="97.042091"
       sodipodi:cy="192.4809"
       sodipodi:rx="64.171509"
       sodipodi:ry="55.46814"
       sodipodi:start="3.0351276"
       sodipodi:end="0.095993109"
       d="m 33.233925,198.37516 a 64.171509,55.46814 0 0 1 29.581107,-52.81382 64.171509,55.46814 0 0 1 67.883818,-0.30724 64.171509,55.46814 0 0 1 30.21932,52.54318"
       sodipodi:open="true" />
    <path
       style="fill:none;stroke:#ffffff;stroke-width:8.9;stroke-linecap:butt;stroke-linejoin:round;stroke-miterlimit:4;stroke-dasharray:none;stroke-opacity:1"
       d="m 78.845831,230.32503 c 7.925872,-2.00794 14.454611,-6.379 13.229168,-16.93333 h 11.112491 c -1.37338,7.46806 6.08542,16.40417 14.02292,17.72709 l -0.26459,-0.26459"
       id="path4802"
       inkscape:connector-curvature="0"
       sodipodi:nodetypes="ccccc" />
    <ellipse
       transform="matrix(-0.86339555,0.50452762,0.50452762,0.86339555,0,0)"
       ry="16.718912"
       rx="5.894496"
       cy="206.22006"
       cx="40.411022"
       id="ellipse4871"
       style="fill:none;fill-opacity:1;stroke:#ffffff;stroke-width:8.90000002;stroke-miterlimit:4;stroke-dasharray:none;stroke-opacity:1" />
    <path
       sodipodi:open="true"
       d="m -161.54743,291.65818 a 34.611404,50.24667 0 0 1 -30.13542,-25.07203 34.611404,50.24667 0 0 1 0.0303,-50.42376 34.611404,50.24667 0 0 1 30.16552,-24.99563"
       sodipodi:end="4.7193703"
       sodipodi:start="1.5655603"
       sodipodi:ry="50.24667"
       sodipodi:rx="34.611404"
       sodipodi:cy="241.4122"
       sodipodi:cx="-161.72865"
       sodipodi:type="arc"
       id="path4873"
       style="fill:none;fill-opacity:1;stroke:#ffffff;stroke-width:14.11111069;stroke-miterlimit:4;stroke-dasharray:none;stroke-opacity:1"
       transform="scale(-1,1)" />
    <path
       style="fill:none;fill-opacity:1;stroke:#ffffff;stroke-width:14.11111069;stroke-miterlimit:4;stroke-dasharray:none;stroke-opacity:1"
       id="path5318"
       sodipodi:type="arc"
       sodipodi:cx="33.121304"
       sodipodi:cy="241.46243"
       sodipodi:rx="34.611404"
       sodipodi:ry="50.24667"
       sodipodi:start="1.5655603"
       sodipodi:end="4.7193703"
       d="M 33.302529,291.70841 A 34.611404,50.24667 0 0 1 3.1671049,266.63638 34.611404,50.24667 0 0 1 3.1974149,216.21263 34.611404,50.24667 0 0 1 33.362935,191.21699"
       sodipodi:open="true" />
    <path
       inkscape:original-d="m 157.37363,156.24713 c 0,-0.35192 0,-0.70383 0,-1.05575 0,-0.21115 -0.0197,-0.42271 0,-0.63345 0.0155,-0.16557 0.085,-0.32736 0.10566,-0.49269 0.0146,-0.11694 0,-0.23461 0,-0.35192 0,-0.23461 0,-0.46922 0,-0.70383 0,-0.46922 0,-0.93844 0,-1.40766 0,-1.90036 0,-3.80071 0,-5.70107 0,-1.43113 0,-2.86226 0,-4.29339 0,-1.90898 0.0755,-2.07896 -0.21133,-3.94147 -0.0683,-0.4434 -0.56513,-2.0287 -0.63398,-2.25227 -0.13742,-0.44625 -0.27651,-0.89227 -0.42265,-1.33728 -0.10042,-0.30579 -0.22483,-0.60806 -0.31699,-0.91499 -0.0488,-0.16267 -0.0354,-0.33353 -0.10565,-0.49268 -0.10704,-0.24242 -0.28946,-0.46725 -0.42266,-0.70383 -0.0782,-0.13895 -0.14732,-0.28018 -0.21132,-0.42231 -0.0417,-0.0926 -0.0407,-0.19501 -0.10566,-0.28153 -0.0788,-0.10498 -0.22365,-0.18207 -0.31699,-0.28153 -0.0835,-0.089 -0.13317,-0.19044 -0.21132,-0.28154 -0.12408,-0.14465 -0.23332,-0.24681 -0.42266,-0.35192 -0.13528,-0.0752 -0.27612,-0.14608 -0.42265,-0.21115 -0.13105,-0.0582 -0.28758,-0.0867 -0.42265,-0.14077 -0.10889,-0.0436 -0.19488,-0.11757 -0.31698,-0.14076 -0.13546,-0.0258 -0.28901,0.0297 -0.42266,0 -0.19483,-0.0433 -0.34064,-0.15559 -0.52831,-0.21115 -0.13272,-0.0393 -0.28668,-0.0364 -0.42266,-0.0704 -0.14747,-0.0369 -0.26889,-0.11795 -0.42265,-0.14077 -0.17191,-0.0254 -0.35505,0.021 -0.52831,0 -0.0676,-0.009 -0.8769,-0.21114 -1.05663,-0.21114 -0.24905,0 -0.49145,0.0566 -0.73964,0.0704 -0.1755,0.0101 -0.35221,0 -0.52832,0 -0.38743,0 -0.77486,0 -1.16229,0 -0.21132,0 -0.42606,-0.0252 -0.63397,0 -0.18661,0.0227 -0.35324,0.0921 -0.52832,0.14077 -0.2476,0.0687 -0.50416,0.12563 -0.73964,0.21115 -0.1546,0.0561 -0.26805,0.15498 -0.42265,0.21115 -0.23549,0.0856 -0.5112,0.11757 -0.73964,0.21116 -0.23428,0.096 -0.42265,0.23461 -0.63398,0.35191 -0.36908,0.20487 -0.8525,0.45163 -1.16229,0.70383 -0.16084,0.13094 -0.27327,0.28548 -0.42265,0.4223 -0.26529,0.24298 -0.58001,0.46085 -0.84531,0.70383 -0.14938,0.13683 -0.28629,0.27958 -0.42265,0.42231 -0.85692,0.89698 0.25618,-0.24225 -0.63398,0.77421 -0.12797,0.14614 -0.29813,0.27485 -0.42265,0.42231 -0.43462,0.51467 -0.58758,0.81282 -0.95097,1.33729 -0.066,0.0953 -0.13589,0.18942 -0.21132,0.28152 -0.13598,0.16606 -0.32295,0.31558 -0.42265,0.49269 -0.11403,0.20252 -0.0973,0.43093 -0.21133,0.63345 -0.0997,0.17711 -0.32294,0.31558 -0.42265,0.49269 -0.11402,0.20252 -0.13256,0.4236 -0.21132,0.63344 -0.40889,1.08947 0.0193,-0.10889 -0.52832,0.98537 -0.11359,0.22698 -0.10811,0.47467 -0.21132,0.70383 -0.0545,0.12097 -0.13661,0.2358 -0.21133,0.35193 -0.031,0.0482 -0.0959,0.0888 -0.10565,0.14076 -0.0262,0.13968 0.0234,0.28239 0,0.4223 -0.0314,0.1886 -0.31699,0.38179 -0.31699,0.56307 0,0.0525 0.12476,0.0899 0.10565,0.14077 -0.0241,0.0643 -0.19179,0.0756 -0.21133,0.14077 -0.0218,0.0728 0.10566,0.13695 0.10566,0.21114 0,0.35557 -0.0812,0.0541 -0.21133,0.14077 -0.0249,0.0166 0.0112,0.0481 0,0.0704 -0.0249,0.0497 -0.10565,0.0882 -0.10565,0.14077 0,0.0331 0.10565,0.0373 0.10565,0.0704 0,0.0332 -0.0834,0.0407 -0.10565,0.0704 -0.0157,0.021 -0.0352,0.0704 0,0.0704 0.0352,0 0,-0.0938 0,-0.0704 0,0.0339 -0.0172,0.3366 0,0.35192 0.0897,0.0797 0.21132,0.14076 0.31699,0.21114"
       inkscape:path-effect="#path-effect875"
       inkscape:connector-curvature="0"
       id="path873"
       d="m 157.37363,156.24713 c -0.20055,0 -0.39451,-0.36836 -0.57807,-1.05575 -0.0467,-0.14263 -0.12313,-0.37802 -0.14489,-0.70108 0.006,-0.3048 0.0507,-0.51325 0.012,-0.52706 -0.0119,0.0153 -0.0495,-0.0524 -0.0667,-0.24992 -0.0364,-0.22152 -0.0722,-0.45629 -0.10736,-0.70383 -0.0613,-0.4313 -0.12078,-0.90137 -0.17819,-1.40766 -0.17862,-1.57518 -0.33741,-3.50104 -0.47047,-5.70107 -0.0808,-1.33577 -0.15209,-2.7726 -0.21259,-4.29339 0,0 0,0 0,0 -0.0512,-1.2314 -0.0958,-2.51199 -0.31592,-3.64013 -0.0278,-0.1795 -0.15198,-0.48308 -0.28693,-0.94218 0,0 0,0 0,0 -0.10506,-0.32955 -0.21507,-0.6616 -0.3304,-1.01405 -0.14226,-0.434 -0.28564,-0.86948 -0.43197,-1.29455 -0.0723,-0.20796 -0.20409,-0.5208 -0.34394,-0.962 0,0 0,-1e-5 0,-1e-5 -0.18116,-0.64826 -0.14041,-0.73725 -0.0215,-0.25049 0,0 0,0 0,0 0.068,0.0872 -0.0797,-0.0633 -0.33857,-0.52141 0,0 -1e-5,0 -1e-5,0 -0.11555,-0.20473 -0.21383,-0.40111 -0.29772,-0.58698 0,0 -1e-5,-1e-5 -1e-5,-1e-5 -0.27367,-0.60277 -0.20625,-0.59315 0.12602,0.11361 0,0 1e-5,2e-5 1e-5,2e-5 0.39162,0.37995 0.29741,0.36599 -0.17164,-0.10597 -0.32928,-0.39031 -0.40553,-0.5209 -0.27401,-0.34993 0.0122,0.0193 0.0603,0.0518 0.14603,0.11321 -0.0486,-0.0269 -0.097,-0.0523 -0.14529,-0.0761 -0.0373,-0.0184 -0.0744,-0.0358 -0.1113,-0.0522 0.1909,0.0618 0.0672,0.0469 -0.35125,-0.11121 -0.51255,-0.19716 -0.45544,-0.22674 0.068,-0.0291 0.67895,0.0369 0.51568,0.0895 -0.48499,-0.0143 -0.73284,-0.2242 -0.93617,-0.35195 -0.66678,-0.24983 0.30192,0.0528 0.18589,0.065 -0.33634,-0.0496 0,0 0,0 0,0 -0.57348,-0.15917 -0.64603,-0.23224 -0.22268,-0.10447 0.38932,0.004 0.22736,0.0518 -0.4856,0.001 -0.41526,-0.0473 -0.63658,-0.11116 -0.67131,-0.14633 -0.33472,-0.0446 -0.34665,-0.0875 -0.12466,-0.0604 0,0 0,0 0,0 0.0662,-0.0221 -0.14373,0.0303 -0.62419,0.0567 0,0 -10e-6,0 -10e-6,0 -0.3324,0.0111 -0.54727,-8.6e-4 -0.64376,-0.005 -0.39064,-0.007 -0.77813,-0.0137 -1.16229,-0.0215 0,0 0,0 0,0 -0.37114,0.002 -0.50646,-0.0335 -0.39286,-0.0282 0.1684,-0.0543 0.0902,-0.007 -0.23758,0.0701 -0.32114,0.0853 -0.52322,0.11783 -0.59997,0.14592 0.26482,-0.13447 0.13111,-0.0323 -0.42648,0.19865 0,0 0,0 0,0 -0.55352,0.18078 -0.7968,0.19126 -0.67486,0.16158 0,0 1e-5,0 1e-5,0 0.0452,-0.0503 -0.0941,0.0556 -0.44028,0.23278 -0.47458,0.25989 -0.79675,0.37636 -0.91489,0.47682 l 0,0 0,0 0,0 c 0.0651,-0.0887 -0.0395,0.0487 -0.35697,0.33376 l 0,0 c -0.41764,0.35486 -0.72577,0.54523 -0.87791,0.66822 l 0,0 c 0,0 0,0 0,0 -0.0986,0.0758 -0.2169,0.1868 -0.35816,0.31929 l 0,0 c 0,0 0,0 0,0 -0.0982,0.0934 -0.18952,0.17899 -0.27278,0.25861 l 0,0 c 0,0 -1e-5,2e-5 -1e-5,2e-5 -0.20994,0.46575 -0.17196,0.36919 0.1462,-0.26657 l 0,0 2e-5,-3e-5 0,0 c 0.01,0.005 0.0146,-8.4e-4 0.021,-0.002 0,0 0,0 0,0 0.007,-0.002 0.0137,-0.0162 0.0214,7.8e-4 0.003,0.0125 -0.0128,0.0271 -0.0216,0.0398 -0.028,0.0402 -0.058,0.0783 -0.0874,0.1158 -0.15132,0.19261 -0.29981,0.36878 -0.43625,0.53051 l 0,0 c 0,0 0,0 0,0 -0.32184,0.33554 -0.45942,0.41153 -0.42867,0.37735 l 0,0 c -0.27311,0.26073 -0.58194,0.70171 -0.9399,1.15231 l 0,0 0,0 0,0 c -0.0941,0.12215 -0.19584,0.24449 -0.30563,0.36593 l 0,0 c -0.33706,0.398 -0.40199,0.35829 -0.31433,0.25003 l 0,0 c 0.0952,-0.34087 0.0726,-0.0688 -0.25714,0.60766 -0.41391,0.58022 -0.71001,0.78094 -0.47043,0.4658 0.0209,-0.17311 -0.001,0.0116 -0.17873,0.42025 -0.0625,0.12754 -0.13059,0.27117 -0.20838,0.42542 0,0 2e-5,-2e-5 2e-5,-2e-5 l 0,0 c 0.62177,-0.39083 0.40486,-0.13421 -0.65001,0.66217 l -0.003,-6.8e-4 c 0,0 0,0 0,0 0.0155,-0.0494 0.0294,-0.0892 0.0441,-0.10635 0,0 0,0 0,0 0.12562,-0.14675 0.18198,-0.0827 0.12722,0.0785 -0.002,-0.15358 -0.0381,0.12816 -0.26763,0.62486 -0.1447,0.25636 -0.26452,0.40166 -0.33351,0.46928 0,0 0,0 0,0 -0.25398,0.42026 -0.25484,0.2901 0.0221,-0.24263 -0.0187,-0.24122 0.01,-0.0667 -0.0543,0.39205 -0.23276,0.64325 -0.74637,1.23597 -0.40537,0.40164 -0.49818,-1.06837 -0.37687,-0.90011 0.0179,0.43768 -0.68537,0.73703 -0.98273,0.82223 -0.24,0.0724 -0.22394,-0.81626 -0.12812,-0.95718 0.0908,-0.0174 l 0,0 c 0,0 1e-5,0 1e-5,0 0.45662,0.0362 -0.0148,0.40492 -1.14342,0.78802 l 0,0 c -0.11544,0.0291 0.0877,-0.0431 0.53503,-0.12099 l 0,0 c 0.19629,-0.83281 0.26384,-0.80316 0.152,-0.20376 l 0,0 c -0.1595,0.3276 -0.28931,0.43478 -0.01,-0.11133 0.003,0.008 0.003,0.008 0.003,0.008 l 0,0 c 0.006,0.0272 0.0703,0.0387 0.0767,0.0659 0.003,0.008 0.003,0.008 0.003,0.008 -0.002,0.005 -0.005,0.01 -0.01,0.0139 0,0 0,0 0,0 -0.0264,0.0289 -0.10096,0.0401 -0.12755,0.0656 0,0 0,0 0,0 -0.006,0.006 -0.0125,0.0127 -0.0183,0.0203 0,0 0,0 0,0 -0.002,0.003 -0.005,0.007 -0.007,0.01 0,0 0,0 0,0 -0.0138,0.0213 -0.0201,0.0418 -0.006,0.0429 0.008,-5.4e-4 0.009,-0.006 0.009,-0.0127 -0.001,-0.0143 -0.0108,-0.0369 -0.0203,-0.0505 -0.008,-0.0108 -0.0149,-0.016 -0.0185,-0.009 -0.0196,0.0581 -0.0469,0.11798 -0.0679,0.16571 0,0 0,1e-5 0,1e-5 0.0232,0.14423 -0.0738,0.0699 -0.14381,-0.0503 l 0,0 c -0.0275,0.12865 0.11259,0.32602 0.0466,0.42508 -0.0453,0.068 -0.23507,0.18165 -0.58862,0.001 l -0.001,-0.002 c -0.11876,-0.21252 -0.1847,-0.41525 -0.1539,-0.39731 0,0 0,0 0,0 -0.0191,-0.0596 -0.0349,-0.12268 -0.0554,-0.1877 -0.004,-0.008 -0.003,-0.003 -0.003,0.007 4.8e-4,0.0128 0.001,0.0353 -0.007,0.0493 -0.004,0.007 -0.0109,0.012 -0.0208,0.0127 -0.0306,-9.7e-4 -0.0367,-0.0207 -0.0356,-0.0405 0,0 0,0 0,0 1.7e-4,-0.003 5.1e-4,-0.006 9.6e-4,-0.009 0,0 0,0 0,0 0.001,-0.007 0.003,-0.0134 0.004,-0.0181 0,0 0,-1e-5 0,-1e-5 0.009,-0.0225 0.0668,-0.0293 0.0762,-0.052 0,0 0,0 0,0 4.3e-4,-0.003 -1.8e-4,-0.006 -0.002,-0.009 0,0 0,0 0,0 -0.0246,-0.0278 -0.10436,-0.0311 -0.12698,-0.0496 l 0,0 c 0,1e-5 0,0 0,0 0.23355,-0.59345 0.34152,-0.69695 0.199,-0.40132 l 0,0 c -0.0949,0.58357 -0.088,0.49443 0.152,-0.34456 l 0,0 c 0.5375,-0.13831 0.85841,-0.14578 0.84396,-0.0601 l 0,0 c -1.01757,0.45242 -1.47743,0.55581 -1.02969,0.44558 0,0 1e-5,0 1e-5,0 l 0,0 c 0.19336,0.66801 0.0842,0.65206 -0.12055,-0.43965 0.68327,-0.80801 0.91019,-0.88674 0.18266,-0.20917 0.41296,1.13505 0.338,1.43868 -0.19343,0.15614 0.20397,-0.91606 0.50986,-1.25484 0.22861,-0.7245 -0.0126,0.12602 -0.0931,0.13569 -0.0543,-0.45255 0.30428,-0.65961 0.41588,-0.83251 0.2334,-0.52415 0,0 0,0 0,0 0.0748,-0.15657 0.11901,-0.23672 0.0891,-0.23458 -0.0214,0.0397 -0.0805,-0.1486 0.15501,-0.78281 0.10308,-0.15536 0.30254,-0.47325 0.6782,-0.8944 0,0 0,0 0,0 0.0426,-0.0477 0.0891,-0.0768 0.13751,-0.10076 0,0 0,0 0,0 l 0,0 c -0.98616,0.7877 -1.19728,0.92865 -0.55272,0.47405 l 0,0 c 0,0 2e-5,-1e-5 2e-5,-1e-5 0.0302,-0.11126 0.0626,-0.24111 0.10404,-0.39059 -0.0224,1e-4 -9.5e-4,-0.27567 0.24391,-0.84663 0.39981,-0.62221 0.61855,-0.77981 0.37487,-0.51958 -0.13682,0.35166 -0.1283,0.021 0.16552,-0.65924 l 0,0 c 0.32909,-0.5198 0.55604,-0.75367 0.53097,-0.73535 l 0,0 c 0.0379,-0.0589 0.0763,-0.1246 0.11701,-0.19711 l 0,0 0,0 0,0 c 0.22837,-0.39494 0.52548,-0.94169 0.96204,-1.52227 l 0,0 c 0.29505,-0.34645 0.46297,-0.48921 0.41663,-0.46727 0,0 0,0 0,0 l 0,0 c 0.0664,-0.0698 0.12606,-0.12971 0.16967,-0.18153 0.009,-0.0101 0.0168,-0.0198 0.0224,-0.0307 0.002,-0.003 0.0101,-0.008 3.8e-4,-0.0111 -0.0204,-0.001 -0.0399,0.0296 -0.0594,0.048 0,0 0,0 0,0 -0.0201,0.0191 -0.0391,0.0429 -0.0619,0.0577 l -0.001,-9.2e-4 1e-5,-3e-5 0,0 c 0.34258,-0.7039 0.45458,-0.84793 0.2945,-0.43509 0,0 -1e-5,2e-5 -1e-5,2e-5 l 0,0 c 0.0967,-0.1136 0.18762,-0.21796 0.27397,-0.31779 0,0 0,0 0,0 l 0,0 c 0.13077,-0.15223 0.29035,-0.33052 0.48714,-0.52533 0,0 0,0 0,0 l 0,0 c 0.38079,-0.3651 0.68163,-0.59172 0.81271,-0.73944 l 0,0 c -0.0237,0.0164 0.1101,-0.167 0.48832,-0.51084 l 0,0 1e-5,0 0,0 c 0.57947,-0.46742 1.07373,-0.74076 1.40969,-0.93084 0.0725,-0.055 0.33274,-0.23651 0.82768,-0.47104 0,0 1e-5,0 1e-5,0 0.58685,-0.22123 0.87832,-0.26695 0.80442,-0.26074 0,0 0,0 0,0 -0.26867,0.12671 -0.13745,0.0161 0.41882,-0.22365 0.40484,-0.14681 0.70025,-0.22283 0.87931,-0.27638 0.0221,-0.0199 0.28693,-0.11287 0.81906,-0.21142 0.52947,-0.0456 0.82311,-0.0298 0.87508,-0.0281 0,0 0,0 0,0 0.38416,-0.008 0.77165,-0.015 1.16229,-0.0215 0.25385,-0.004 0.39301,0.004 0.41288,-0.005 0,0 0,0 0,0 0.012,-9.5e-4 0.29095,-0.062 0.85508,-0.0841 0,0 0,0 0,0 0.61974,0.0287 0.95953,0.10294 1.01607,0.14401 0.28626,0.0359 0.3887,0.0751 0.30122,0.0716 -0.36414,-0.008 -0.16796,-0.0547 0.57102,0.001 0.7114,0.16965 0.91234,0.26539 0.62262,0.17707 0,0 0,0 0,0 -0.24528,-0.0453 -0.0679,-0.0429 0.50898,0.0912 0.63639,0.2109 0.74718,0.31263 0.38984,0.17247 -0.72635,-0.0425 -0.59582,-0.10397 0.36033,-0.0143 0.76217,0.2451 0.98762,0.35893 0.70196,0.25245 -0.14176,-0.0474 0.0297,-0.0128 0.49405,0.17033 0.0884,0.0393 0.17569,0.0801 0.26167,0.12248 0.11137,0.0548 0.2204,0.11207 0.32704,0.1715 0.40906,0.24085 0.73956,0.51847 0.99135,0.81705 0.28357,0.34814 0.31857,0.43388 0.14863,0.21315 -0.27958,-0.26979 -0.0941,-0.14421 0.46234,0.45709 0,0 1e-5,2e-5 1e-5,2e-5 0.45099,0.86289 0.53078,1.10123 0.33733,0.67667 0,0 0,-10e-6 0,-10e-6 0.0458,0.10206 0.0863,0.18849 0.12492,0.25764 0,0 0,0 0,0 0.011,0.0213 0.21842,0.3001 0.50674,0.88625 0,0 1e-5,10e-6 1e-5,10e-6 0.25569,0.79845 0.27363,1.05885 0.18977,0.73486 0,0 0,-1e-5 0,-1e-5 0.0469,0.18074 0.16205,0.46615 0.29004,0.86798 0.14724,0.46893 0.28381,0.93139 0.41333,1.38001 0.10167,0.35214 0.20394,0.70693 0.30399,1.07335 0,0 0,0 0,0 0.10389,0.35142 0.24835,0.83598 0.34664,1.47496 0.18987,1.53622 0.15797,2.99087 0.10674,4.24281 0,0 0,0 0,0 -0.0605,1.52079 -0.1318,2.95762 -0.21259,4.29339 -0.13306,2.20003 -0.29185,4.12589 -0.47047,5.70107 -0.0574,0.50629 -0.11687,0.97636 -0.17819,1.40766 -0.0352,0.24754 -0.071,0.48231 -0.10737,0.70383 -0.0171,0.046 -0.026,0.21263 -0.0667,0.45392 -0.0821,0.3367 -0.18007,0.45023 -0.19934,0.45832 -0.0597,0.11597 -0.0973,0.36085 -0.14489,0.56582 -0.18356,0.68739 -0.37752,1.05575 -0.57807,1.05575 z"
       style="fill:#ffffff;fill-opacity:1;stroke:#ffffff;stroke-width:6;stroke-linecap:butt;stroke-linejoin:round;stroke-miterlimit:4;stroke-dasharray:none;stroke-opacity:1" />
  </g>
</svg>
