<?xml version="1.0" encoding="UTF-8" standalone="no"?>
<!-- Created with Inkscape (http://www.inkscape.org/) -->

<svg
   xmlns:dc="http://purl.org/dc/elements/1.1/"
   xmlns:cc="http://creativecommons.org/ns#"
   xmlns:rdf="http://www.w3.org/1999/02/22-rdf-syntax-ns#"
   xmlns:svg="http://www.w3.org/2000/svg"
   xmlns="http://www.w3.org/2000/svg"
   xmlns:xlink="http://www.w3.org/1999/xlink"
   xmlns:sodipodi="http://sodipodi.sourceforge.net/DTD/sodipodi-0.dtd"
   xmlns:inkscape="http://www.inkscape.org/namespaces/inkscape"
   width="289.46207"
   height="289.46207"
   viewBox="0 0 76.586838 76.586838"
   version="1.1"
   id="svg8"
   inkscape:version="0.92.2 5c3e80d, 2017-08-06"
   sodipodi:docname="manday.svg"
   inkscape:export-filename="/Users/disorder/Projects/manday.png"
   inkscape:export-xdpi="96"
   inkscape:export-ydpi="96">
  <defs
     id="defs2">
    <inkscape:path-effect
       fuse_tolerance="0"
       vertical_pattern="false"
       prop_units="false"
       tang_offset="0"
       normal_offset="0"
       spacing="0"
       scale_y_rel="false"
       prop_scale="0.10413051"
       copytype="single_stretched"
       pattern="m 107.68618,19.073248 c 0,-2.760002 2.24,-5.000003 5,-5.000003 2.76,0 5,2.240001 5,5.000003 0,2.760001 -2.24,5.000003 -5,5.000003 -2.76,0 -5,-2.240002 -5,-5.000003 z"
       is_visible="true"
       id="path-effect875"
       effect="skeletal" />
    <inkscape:path-effect
       fuse_tolerance="0"
       vertical_pattern="false"
       prop_units="false"
       tang_offset="0"
       normal_offset="0"
       spacing="0"
       scale_y_rel="false"
       prop_scale="0.41652203"
       copytype="single_stretched"
       pattern="m 105.8723,16.55999 c 0,-2.760002 2.24,-5.000003 5,-5.000003 2.76,0 5,2.240001 5,5.000003 0,2.760001 -2.24,5.000003 -5,5.000003 -2.76,0 -5,-2.240002 -5,-5.000003 z"
       is_visible="true"
       id="path-effect5316"
       effect="skeletal" />
    <marker
       inkscape:stockid="Arrow1Send"
       orient="auto"
       refY="0"
       refX="0"
       id="Arrow1Send"
       style="overflow:visible"
       inkscape:isstock="true">
      <path
         id="path5021"
         d="M 0,0 5,-5 -12.5,0 5,5 Z"
         style="fill:#000000;fill-opacity:1;fill-rule:evenodd;stroke:none;stroke-width:1.00000003pt;stroke-opacity:1"
         transform="matrix(-0.2,0,0,-0.2,-1.2,0)"
         inkscape:connector-curvature="0" />
    </marker>
    <marker
       inkscape:stockid="Arrow1Lend"
       orient="auto"
       refY="0"
       refX="0"
       id="Arrow1Lend"
       style="overflow:visible"
       inkscape:isstock="true">
      <path
         id="path5009"
         d="M 0,0 5,-5 -12.5,0 5,5 Z"
         style="fill:#000000;fill-opacity:1;fill-rule:evenodd;stroke:none;stroke-width:1.00000003pt;stroke-opacity:1"
         transform="matrix(-0.8,0,0,-0.8,-10,0)"
         inkscape:connector-curvature="0" />
    </marker>
    <inkscape:path-effect
       effect="skeletal"
       id="path-effect5004"
       is_visible="true"
       pattern="M 0,5 C 0,2.24 2.24,0 5,0 7.76,0 10,2.24 10,5 10,7.76 7.76,10 5,10 2.24,10 0,7.76 0,5 Z"
       copytype="single_stretched"
       prop_scale="0.26458332"
       scale_y_rel="false"
       spacing="0"
       normal_offset="0"
       tang_offset="0"
       prop_units="false"
       vertical_pattern="false"
       fuse_tolerance="0" />
    <inkscape:path-effect
       effect="spiro"
       id="path-effect5002"
       is_visible="true" />
    <inkscape:path-effect
       effect="simplify"
       id="path-effect5000"
       is_visible="true"
       steps="1"
       threshold="0.005"
       smooth_angles="360"
       helper_size="0"
       simplify_individual_paths="false"
       simplify_just_coalesce="false"
       simplifyindividualpaths="false"
       simplifyJustCoalesce="false" />
    <inkscape:path-effect
       effect="skeletal"
       id="path-effect4996"
       is_visible="true"
       pattern="M 0,5 C 0,2.24 2.24,0 5,0 7.76,0 10,2.24 10,5 10,7.76 7.76,10 5,10 2.24,10 0,7.76 0,5 Z"
       copytype="single_stretched"
       prop_scale="0.26458332"
       scale_y_rel="false"
       spacing="0"
       normal_offset="0"
       tang_offset="0"
       prop_units="false"
       vertical_pattern="false"
       fuse_tolerance="0" />
    <inkscape:path-effect
       effect="spiro"
       id="path-effect4994"
       is_visible="true" />
    <inkscape:path-effect
       effect="simplify"
       id="path-effect4992"
       is_visible="true"
       steps="1"
       threshold="0.005"
       smooth_angles="360"
       helper_size="0"
       simplify_individual_paths="false"
       simplify_just_coalesce="false"
       simplifyindividualpaths="false"
       simplifyJustCoalesce="false" />
    <inkscape:path-effect
       effect="skeletal"
       id="path-effect4988"
       is_visible="true"
       pattern="M 0,5 C 0,2.24 2.24,0 5,0 7.76,0 10,2.24 10,5 10,7.76 7.76,10 5,10 2.24,10 0,7.76 0,5 Z"
       copytype="single_stretched"
       prop_scale="0.26458332"
       scale_y_rel="false"
       spacing="0"
       normal_offset="0"
       tang_offset="0"
       prop_units="false"
       vertical_pattern="false"
       fuse_tolerance="0" />
    <inkscape:path-effect
       effect="spiro"
       id="path-effect4986"
       is_visible="true" />
    <inkscape:path-effect
       effect="simplify"
       id="path-effect4984"
       is_visible="true"
       steps="1"
       threshold="0.005"
       smooth_angles="360"
       helper_size="0"
       simplify_individual_paths="false"
       simplify_just_coalesce="false"
       simplifyindividualpaths="false"
       simplifyJustCoalesce="false" />
    <inkscape:path-effect
       effect="skeletal"
       id="path-effect4940"
       is_visible="true"
       pattern="M 0,5 C 0,2.24 2.24,0 5,0 7.76,0 10,2.24 10,5 10,7.76 7.76,10 5,10 2.24,10 0,7.76 0,5 Z"
       copytype="single_stretched"
       prop_scale="0.26458332"
       scale_y_rel="false"
       spacing="0"
       normal_offset="0"
       tang_offset="0"
       prop_units="false"
       vertical_pattern="false"
       fuse_tolerance="0" />
    <inkscape:path-effect
       effect="simplify"
       id="path-effect4938"
       is_visible="true"
       steps="1"
       threshold="0.000408163"
       smooth_angles="360"
       helper_size="0"
       simplify_individual_paths="false"
       simplify_just_coalesce="false"
       simplifyindividualpaths="false"
       simplifyJustCoalesce="false" />
    <inkscape:path-effect
       fuse_tolerance="0"
       vertical_pattern="false"
       prop_units="false"
       tang_offset="0"
       normal_offset="0"
       spacing="0"
       scale_y_rel="false"
       prop_scale="0.41652203"
       copytype="single_stretched"
       pattern="m 108.75948,28.235643 c 0,-2.760002 2.24,-5.000003 5,-5.000003 2.76,0 5,2.240001 5,5.000003 0,2.760001 -2.24,5.000003 -5,5.000003 -2.76,0 -5,-2.240002 -5,-5.000003 z"
       is_visible="true"
       id="path-effect4912"
       effect="skeletal" />
    <linearGradient
       inkscape:collect="always"
       id="linearGradient4883">
      <stop
         style="stop-color:#1f91c7;stop-opacity:1"
         offset="0"
         id="stop4879" />
      <stop
         style="stop-color:#1fbcff;stop-opacity:0"
         offset="1"
         id="stop4881" />
    </linearGradient>
    <inkscape:path-effect
       fuse_tolerance="0"
       vertical_pattern="false"
       prop_units="false"
       tang_offset="0"
       normal_offset="0"
       spacing="0"
       scale_y_rel="false"
       prop_scale="0.26458333"
       copytype="single_stretched"
       pattern="m 105.04437,31.844814 c 0,-2.760002 2.24,-5.000003 5.00001,-5.000003 2.76,0 5,2.240001 5,5.000003 0,2.760001 -2.24,5.000003 -5,5.000003 -2.76001,0 -5.00001,-2.240002 -5.00001,-5.000003 z"
       is_visible="true"
       id="path-effect4877"
       effect="skeletal" />
    <inkscape:path-effect
       effect="skeletal"
       id="path-effect4694"
       is_visible="true"
       pattern="m 0.44840591,9.756293 c 0,-2.76 2.24000009,-5 5.00000009,-5 2.76,0 5,2.24 5,5 0,2.76 -2.24,5 -5,5 -2.76,0 -5.00000009,-2.24 -5.00000009,-5 z"
       copytype="single_stretched"
       prop_scale="0.26458333"
       scale_y_rel="false"
       spacing="0"
       normal_offset="0"
       tang_offset="0"
       prop_units="false"
       vertical_pattern="false"
       fuse_tolerance="0" />
    <inkscape:path-effect
       effect="skeletal"
       id="path-effect4643"
       is_visible="true"
       pattern="m 6.8770343,18.34233 c 0,-2.760002 2.2400003,-5.000003 4.9999997,-5.000003 2.76,0 5.000001,2.240001 5.000001,5.000003 0,2.760001 -2.240001,5.000003 -5.000001,5.000003 -2.7599994,0 -4.9999997,-2.240002 -4.9999997,-5.000003 z"
       copytype="single_stretched"
       prop_scale="0.10413051"
       scale_y_rel="false"
       spacing="0"
       normal_offset="0"
       tang_offset="0"
       prop_units="false"
       vertical_pattern="false"
       fuse_tolerance="0" />
    <linearGradient
       inkscape:collect="always"
       xlink:href="#linearGradient4883"
       id="linearGradient4889"
       x1="100.54166"
       y1="323.45834"
       x2="100.54166"
       y2="111.79166"
       gradientUnits="userSpaceOnUse"
       gradientTransform="matrix(0.34029708,0,0,0.34029708,63.40765,153.99532)" />
  </defs>
  <sodipodi:namedview
     id="base"
     pagecolor="#ffffff"
     bordercolor="#666666"
     borderopacity="1.0"
     inkscape:pageopacity="0.0"
     inkscape:pageshadow="2"
     inkscape:zoom="0.1478737"
     inkscape:cx="1254.9829"
     inkscape:cy="-630.78952"
     inkscape:document-units="mm"
     inkscape:current-layer="layer3"
     showgrid="false"
     inkscape:window-width="1680"
     inkscape:window-height="932"
     inkscape:window-x="0"
     inkscape:window-y="0"
     inkscape:window-maximized="1"
     fit-margin-top="0"
     fit-margin-left="0"
     fit-margin-right="0"
     fit-margin-bottom="0"
     units="px">
    <inkscape:grid
       type="xygrid"
       id="grid4690"
       originx="-59.045722"
       originy="-25.35685" />
  </sodipodi:namedview>
  <metadata
     id="metadata5">
    <rdf:RDF>
      <cc:Work
         rdf:about="">
        <dc:format>image/svg+xml</dc:format>
        <dc:type
           rdf:resource="http://purl.org/dc/dcmitype/StillImage" />
        <dc:title></dc:title>
      </cc:Work>
    </rdf:RDF>
  </metadata>
  <g
     inkscape:groupmode="layer"
     id="layer3"
     inkscape:label="tlo"
     style="display:inline"
     transform="translate(-59.045723,-195.05633)">
    <circle
       style="fill:url(#linearGradient4889);fill-opacity:1;stroke:#ffffff;stroke-width:2.20953298;stroke-linejoin:round;stroke-miterlimit:4;stroke-dasharray:none;stroke-opacity:1"
       id="path4807"
       cx="97.339142"
       cy="233.34975"
       r="37.188652" />
  </g>
  <g
     inkscape:label="Layer 1"
     inkscape:groupmode="layer"
     id="layer1"
     style="display:none"
     transform="translate(-59.045723,-195.05633)" />
  <g
     inkscape:groupmode="layer"
     id="layer2"
     inkscape:label="Layer 2"
     style="display:inline"
     transform="translate(-59.045723,-195.05633)">
    <ellipse
       style="fill:none;fill-opacity:1;stroke:#ffffff;stroke-width:2.2249999;stroke-miterlimit:4;stroke-dasharray:none;stroke-opacity:1"
       id="path888"
       cx="203.66739"
       cy="141.42207"
       rx="1.473624"
       ry="4.179728"
       transform="rotate(30.3)" />
    <path
       style="fill:#ffffff;fill-opacity:1;stroke:#ffffff;stroke-width:1.5;stroke-linecap:butt;stroke-linejoin:round;stroke-miterlimit:4;stroke-dasharray:none;stroke-opacity:1"
       d="m 82.000805,213.89137 c -0.04881,0 -0.09606,-0.092 -0.140871,-0.26394 l 0,0 c -0.01157,-0.0508 -0.02072,-0.11229 -0.03536,-0.14186 l 0,0 c -0.0048,-0.006 -0.02982,-0.0402 -0.05007,-0.12724 l 0,0 c -0.0096,-0.0307 -0.01103,-0.0584 -0.01689,-0.0918 -0.009,-0.0578 -0.01781,-0.11932 -0.02655,-0.18454 v 0 c -0.01489,-0.10792 -0.02936,-0.22542 -0.04335,-0.35192 l 0,0 c -0.04358,-0.39398 -0.08258,-0.87514 -0.115665,-1.42527 v 0 c -0.02007,-0.33376 -0.03797,-0.69289 -0.05339,-1.07334 l 0,0 0,0 0,0 c -0.01302,-0.31258 -0.02144,-0.67611 0.02542,-1.05976 l 0,0 c 0.03566,-0.26158 0.10693,-0.46883 0.161444,-0.63657 l 0,0 c 0.03212,-0.11215 0.066,-0.22786 0.102533,-0.34519 l 0,0 c 0.03173,-0.10024 0.06033,-0.17173 0.07193,-0.21724 l 0,0 0,0 0,0 c -0.02104,0.0807 -0.01671,0.0155 0.04709,-0.18373 l 0,0 1e-6,0 0,0 c 0.07157,-0.14598 0.123234,-0.21574 0.12597,-0.22142 l 0,0 c 0.02624,-0.0343 0.05301,-0.073 0.08115,-0.11573 l 0,0 c 0,0 0,0 0,0 0.04448,-0.0971 0.06531,-0.16617 0.08945,-0.20029 0.03209,-0.0412 0.05998,-0.0406 0.06262,-0.0127 l 0,0 c 0,0 10e-7,0 10e-7,0 0.03199,-0.0394 0.05807,-0.0816 0.09384,-0.12117 0,0 0,0 0,0 0.05222,-0.058 0.114644,-0.11129 0.187026,-0.15607 l 0,0 c 0.04725,-0.0265 0.09613,-0.0511 0.146558,-0.0737 l 0,0 c 0.135376,-0.0517 0.191694,-0.064 0.175278,-0.0578 l 0,0 c 0.12809,-0.02 0.204333,-0.0441 0.242982,-0.0519 0.02417,-0.005 0.03257,-0.002 0.02446,0.001 -0.0064,0.002 -0.02306,0.005 -0.05022,0.005 -0.09128,0.0354 -0.06529,0.0102 0.09279,-0.0425 0.148945,-0.0351 0.193964,-0.0357 0.129207,-0.0238 l 0,0 c -0.07532,0.023 -0.02484,-0.001 0.157083,-0.0449 l 0,0 c 0.178904,-0.009 0.21428,0.006 0.130317,0.0115 l 0,0 c 0.0033,-5.5e-4 0.0033,-5.5e-4 0.0033,-5.5e-4 -0.03334,-0.17317 0.01023,-0.1834 0.09243,-0.0217 0,0 2e-6,0 2e-6,0 l 0,0 c 0.01155,-0.0131 0.09309,-0.0342 0.244198,-0.0449 0,0 2e-6,0 2e-6,0 l 0,0 c 0,0 1e-6,0 1e-6,0 0.142807,0.005 0.213701,0.0204 0.216614,0.0203 l 0,0 c 0,0 0,0 0,0 -0.0019,0.002 0.03199,-6.2e-4 0.100373,4.4e-4 0,0 10e-7,0 10e-7,0 l 0,0 c 0.09753,0.001 0.194399,0.002 0.290573,0.004 l 0,0 c 0.01534,-4.6e-4 0.08903,-0.004 0.220035,0.006 l 0,0 c 0.130574,0.0243 0.197573,0.0471 0.20614,0.0523 l 0,0 c 0,0 10e-7,0 10e-7,0 0.04398,0.0127 0.118257,0.0314 0.22058,0.068 0,0 10e-7,0 10e-7,0 l 0,0 c 0,0 2e-6,0 2e-6,0 0.1415,0.0607 0.173979,0.0879 0.105352,0.0553 l 0,0 c 0,0 0,0 0,0 -0.02013,-0.003 0.05252,0.008 0.20174,0.064 l 0,0 c 0,0 2e-6,0 2e-6,0 0.125745,0.0591 0.191568,0.10441 0.208779,0.11714 0,0 0,0 0,0 l 0,0 c 0.08351,0.0461 0.208484,0.11419 0.356212,0.23187 l 0,0 c 0.09769,0.0882 0.130765,0.13314 0.123812,0.12742 l 0,0 c 0.03175,0.0349 0.107234,0.0906 0.204957,0.18287 l 0,0 c 0,0 0,0 0,0 0.05021,0.0489 0.09081,0.0935 0.123906,0.13122 l 0,0 c 0.02432,0.0301 0.07078,0.0824 0.131708,0.16056 l 0,0 c -0.0017,-0.003 -0.0092,-0.0121 -0.01799,-0.0218 0,0 -1e-6,0 -1e-6,0 -0.0065,-0.007 -0.01267,-0.0141 -0.01887,-0.0205 0,0 0,-1e-5 0,-1e-5 -0.0083,-0.009 -0.0149,-0.0149 -0.01557,-0.0146 0,0 0,0 0,0 -0.006,0.003 0.02971,0.0373 0.0831,0.11297 l 0,0 -10e-7,0 0,0 c -0.01348,-0.008 0.02872,0.0266 0.105928,0.11605 0,0 10e-7,0 10e-7,0 l 0,0 c 0.10823,0.14099 0.180706,0.27162 0.236535,0.3657 l 0,0 c 0,0 0,0 0,0 -0.0019,0.003 0.0054,0.0162 0.02178,0.0397 0.03083,0.0432 0.09284,0.10678 0.155037,0.20787 l 0,0 c 0.08212,0.18808 0.08064,0.25933 0.04411,0.16341 l 0,0 c -0.06887,-0.0779 -0.01468,-0.041 0.09654,0.1282 l 0,0 c 0.06675,0.15289 0.0745,0.22372 0.06728,0.21626 l 0,0 c 0.02468,0.067 0.02251,0.0892 0.01323,0.0707 l 0,0 c 0.0068,0.0138 0.004,-0.002 0.01377,0.008 0.01114,0.0117 0.01597,0.025 0.02296,0.0389 0.01807,0.0361 0.03253,0.071 0.04526,0.10306 l 0,0 c 0,0 10e-7,0 10e-7,0 0.06103,0.17032 0.04744,0.22386 0.03362,0.19593 l 0,0 c 0.01034,0.0188 0.02779,0.0547 0.04743,0.11249 l 0,0 c 0.0144,0.0789 0.03489,0.12558 0.03959,0.14909 0,0 0,0 0,0 0.0091,0.0469 -0.003,0.064 7.83e-4,0.0541 l 0,0 c 0,0 -10e-7,0 -10e-7,0 -0.128395,-0.18338 -0.09919,-0.12394 -0.06277,0.16593 l 0,0 c -0.002,0.0356 -0.0358,0.0632 -0.03437,0.0904 0.0027,0.0317 0.04068,0.0461 0.04103,0.0705 0,0 0,0 0,0 9.98e-4,0.0275 -0.03615,0.049 -0.04159,0.07 -0.0021,0.0139 -0.0048,0.0259 -0.004,0.0385 0.0016,0.0251 0.01342,-0.0124 0.03129,-0.006 0.0044,0.004 -0.01221,0.006 -0.01651,0.005 l 0,0 c 0,0 0,0 0,0 l 0,0 c 0.0038,0.0208 0.02157,0.0369 0.0196,0.0545 0,0 0,0 0,0 -0.0019,0.0123 -0.03016,0.0173 -0.03207,0.0296 -0.0019,0.0114 0.01762,0.015 0.02125,0.0223 0.0026,0.006 0.0048,0.017 -0.0056,0.0148 0,0 0,0 0,0 -0.01191,-0.002 -0.0047,-0.0293 -0.0075,-0.0287 -7.82e-4,7e-4 -0.0013,0.006 -0.0018,0.0123 -0.0012,0.015 -0.002,0.0325 -0.0044,0.0441 0,0 0,0 0,0 -0.0015,0.007 -0.0035,0.0111 -0.0062,0.009 0,0 0,0 0,0 -0.05836,0.0205 -0.108861,0.005 -0.121316,-0.0141 -0.02032,-0.0305 0.0023,-0.0572 0.0372,-0.11973 0,0 0,0 0,0 -6.75e-4,-0.007 -0.0018,-0.0181 -0.0024,-0.0249 0,0 0,0 0,0 -0.0017,-0.0173 -0.0045,-0.0447 -0.0069,-0.0644 -0.0012,-0.01 -0.0023,-0.0175 -0.0031,-0.0209 -0.0033,-0.012 -0.01303,0.008 -0.0075,0.006 0,0 0,0 0,0 0.006,-0.002 0.0012,-0.0148 -0.0056,-0.0204 -0.0069,-0.007 -0.02972,-0.007 -0.03157,-0.0129 -0.0017,-0.006 0.02289,-0.003 0.02075,-0.006 0,0 0,0 0,0 -0.002,-0.008 -0.02419,-0.011 -0.03322,-0.0159 l 0,0 c 0,1e-5 0,0 0,0 l 0,0 c -0.01003,-0.0126 -0.0082,-0.0262 -0.02175,-0.0332 -0.03254,-0.0132 -0.05361,0.0228 -0.06411,-8.6e-4 -0.0052,-0.0118 -0.0069,-0.0224 -0.009,-0.0341 -0.0054,-0.0153 0.02149,-0.0258 0.01123,-0.0356 0,0 -10e-7,0 -10e-7,0 -0.0092,-0.007 -0.05512,0.001 -0.06463,1.4e-4 -0.0079,0.002 0.02045,0.011 0.01845,0.02 l 0,0 c 0.03448,0.17177 -0.06859,0.18913 -0.221273,-0.1156 0,0 -10e-7,-1e-5 -10e-7,-1e-5 l 0,0 c -0.0075,-0.0784 0.0048,-0.13347 7.83e-4,-0.15706 0,0 0,0 0,0 -10e-7,-1e-5 -0.01197,0.022 -0.01323,0.0787 l 0,0 c -0.01428,0.005 -0.03508,-0.0125 -0.0555,-0.0577 l -0.0027,-0.006 c -0.06613,-0.14358 -0.07503,-0.20758 -0.07204,-0.15599 0,0 0,0 0,0 l 0,0 c -0.01828,-0.0299 -0.03579,-0.0585 -0.05389,-0.0834 -0.007,-0.01 -0.01141,-0.0178 -0.02168,-0.0237 -0.009,-0.005 -0.0051,0.0165 -0.01039,0.009 l 0,0 c -0.05272,-0.0953 -0.07586,-0.15618 -0.08299,-0.17387 l 0,0 c -0.0464,-0.11093 -0.04925,-0.15403 -0.03838,-0.10046 l 0,0 c 0.06474,0.0837 0.0023,0.0475 -0.11478,-0.11816 l 0,0 c -0.08764,-0.18413 -0.09152,-0.25058 -0.06155,-0.15331 l 0,0 c 0.01069,0.009 -0.01853,0.002 -0.05629,-0.0385 -0.02111,-0.0225 -0.04872,-0.0559 -0.08388,-0.10113 0,0 0,0 0,0 l 0,0 c -0.09295,-0.12053 -0.170078,-0.23408 -0.238949,-0.30294 l 0,0 c 0,0 0,0 0,0 0.01942,0.02 -0.03162,-0.0174 -0.105397,-0.0951 l 0,0 -10e-7,0 0,0 c -0.0091,0.004 -0.04914,-0.0263 -0.09989,-0.10845 0,0 -10e-7,0 -10e-7,0 -0.0057,-0.009 -0.0061,-0.0128 -0.0055,-0.0152 0,0 0,0 0,0 4.44e-4,-0.002 5.4e-4,-0.004 4.95e-4,-0.006 0,0 0,0 0,0 -6.1e-5,-0.003 -0.0021,-0.008 -0.01072,-0.0198 l 0,0 c 0.009,0.0138 -0.0055,0.009 -0.03897,-0.0212 l 0,0 c -0.03508,-0.0336 -0.06385,-0.0613 -0.08742,-0.0799 0,0 -10e-7,0 -10e-7,0 l 0,0 c -0.03592,-0.0301 -0.11273,-0.0787 -0.217695,-0.16905 l 0,0 c -0.08112,-0.0735 -0.106403,-0.10774 -0.08751,-0.0837 l 0,0 c -0.02693,-0.0245 -0.106663,-0.0542 -0.224936,-0.12005 l 0,0 c 0,0 0,0 0,0 -0.08768,-0.0454 -0.121625,-0.072 -0.108208,-0.0589 0,0 10e-7,0 10e-7,0 l 0,0 c 0.03122,0.007 -0.02664,0.005 -0.168077,-0.0416 0,0 -10e-7,0 -10e-7,0 l 0,0 c -0.141311,-0.059 -0.174219,-0.0846 -0.105975,-0.0503 0,0 10e-7,0 10e-7,0 l 0,0 c 0,0 0,0 0,0 -0.01805,-0.007 -0.06846,-0.0156 -0.149238,-0.0375 0,0 0,0 0,0 l 0,0 c -0.07893,-0.0191 -0.09784,-0.0307 -0.05802,-0.0181 l 0,0 c 0.02664,-0.002 -0.0064,0.007 -0.09695,0.006 l 0,0 c -0.09617,0.001 -0.193046,0.003 -0.290573,0.004 l 0,0 c 0,0 -10e-7,0 -10e-7,0 -0.01929,0.001 -0.07393,0.004 -0.163782,4.4e-4 0,0 -1e-6,0 -1e-6,0 l 0,0 c -0.12031,-0.007 -0.17162,-0.0203 -0.153205,-0.0149 0,0 0,0 0,0 l 0,0 c 0,0 1e-6,0 1e-6,0 0.06008,-0.0107 0.05249,-0.004 -0.02534,0.003 l 0,0 c 0,0 10e-7,1e-5 10e-7,1e-5 0.01095,0.17744 -0.05421,0.19447 -0.159663,0.0349 0,0 -10e-7,-10e-6 -10e-7,-10e-6 l -0.0033,5.5e-4 c -0.175263,0.0156 -0.221259,0.008 -0.133839,0.0115 l 0,0 c 0.109624,-0.033 0.09236,-0.0148 -0.05424,0.0255 l 0,0 c -0.134044,0.0295 -0.162372,0.0258 -0.08212,0.0114 0.06633,-0.0255 0.01372,0.007 -0.171368,0.0631 -0.0577,0.006 -0.105542,0.007 -0.143282,0.006 -0.04775,-4.4e-4 -0.07913,-0.003 -0.0938,-7.7e-4 -0.0226,0.004 0.01084,0.0167 0.08448,0.0185 l 0,0 c -0.08776,0.0346 -0.101465,0.0332 -0.03605,0.0126 l 0,0 c -0.02169,0.01 -0.04331,0.0202 -0.06477,0.0319 l 0,0 c -0.0084,1.4e-4 -0.01667,0.008 -0.0243,0.0199 0,0 0,0 0,0 -0.0034,0.006 -0.0021,0.0145 -0.01182,0.0196 0,0 0,0 0,0 l 0,0 c -0.04078,0.0742 -0.07969,0.11189 -0.09217,0.12349 -0.01209,0.014 0.0093,-0.004 0.03293,-0.0548 0,0 0,0 0,0 l 0,0 c -0.0042,0.0293 -0.01219,0.0613 -0.02451,0.0954 l 0,0 c -0.06477,0.1142 -0.101867,0.15176 -0.08536,0.13048 l 0,0 0,0 0,0 c 0.02954,-0.12146 0.03961,-0.099 -0.0057,0.0626 l 0,0 0,0 0,0 c -0.0351,0.11001 -0.06823,0.1881 -0.08657,0.24026 l 0,0 c -0.03688,0.10622 -0.07299,0.21505 -0.108795,0.32345 l 0,0 c -0.06292,0.21344 -0.132749,0.37121 -0.155544,0.48957 l 0,0 c -0.05565,0.28272 -0.06724,0.60343 -0.08024,0.91098 l 0,0 0,0 0,0 c -0.01542,0.38045 -0.03331,0.73958 -0.05339,1.07334 h 0 c -0.03308,0.55013 -0.07208,1.03129 -0.115666,1.42527 v 0 c -0.01399,0.1265 -0.02846,0.244 -0.04335,0.35192 l 0,0 c -0.0087,0.0584 -0.0176,0.1143 -0.02655,0.16736 -0.0056,0.029 -0.01468,0.0572 -0.01689,0.0841 l 0,0 c -0.0096,-2.8e-4 0.0013,0.0474 0.0027,0.11912 l 0,0 c -0.0052,0.08 -0.024,0.13904 -0.03536,0.17486 l 0,0 c -0.04481,0.17196 -0.09206,0.26394 -0.140871,0.26394 z"
       id="path4641"
       inkscape:connector-curvature="0"
       inkscape:path-effect="#path-effect4643"
       inkscape:original-d="m 82.000805,213.89137 c 0,-0.088 0,-0.17596 0,-0.26394 0,-0.0528 0.0049,-0.10568 0,-0.15836 -0.0039,-0.0414 -0.02124,-0.0818 -0.02641,-0.12318 -0.0036,-0.0292 0,-0.0587 0,-0.088 0,-0.0587 0,-0.1173 0,-0.17595 0,-0.11731 0,-0.23461 0,-0.35192 0,-0.47509 0,-0.95018 0,-1.42527 0,-0.35778 0,-0.71556 0,-1.07334 0,-0.47725 -0.01886,-0.51974 0.05283,-0.98537 0.01707,-0.11085 0.141282,-0.50718 0.158494,-0.56307 0.03436,-0.11156 0.06913,-0.22307 0.105664,-0.33432 0.0251,-0.0764 0.05621,-0.15201 0.07925,-0.22875 0.01221,-0.0407 0.0088,-0.0834 0.02641,-0.12317 0.02676,-0.0606 0.07236,-0.11681 0.105664,-0.17595 0.01955,-0.0347 0.03683,-0.07 0.05283,-0.10558 0.01043,-0.0231 0.01018,-0.0487 0.02641,-0.0704 0.01969,-0.0262 0.05591,-0.0455 0.07925,-0.0704 0.02087,-0.0223 0.03329,-0.0476 0.05283,-0.0704 0.03102,-0.0362 0.05833,-0.0617 0.105664,-0.088 0.03382,-0.0188 0.06903,-0.0365 0.105662,-0.0528 0.03276,-0.0146 0.0719,-0.0217 0.105663,-0.0352 0.02722,-0.0109 0.04872,-0.0294 0.07925,-0.0352 0.03386,-0.006 0.07225,0.007 0.105664,0 0.04871,-0.0108 0.08516,-0.0389 0.132078,-0.0528 0.03318,-0.01 0.07167,-0.009 0.105664,-0.0176 0.03687,-0.009 0.06722,-0.0295 0.105663,-0.0352 0.04298,-0.006 0.08876,0.005 0.132078,0 0.01691,-0.002 0.219225,-0.0528 0.264157,-0.0528 0.06226,0 0.122863,0.0142 0.18491,0.0176 0.04387,0.003 0.08805,0 0.132079,0 0.09686,0 0.193716,0 0.290573,0 0.05283,0 0.106515,-0.006 0.158494,0 0.04665,0.006 0.08831,0.023 0.132079,0.0352 0.0619,0.0172 0.12604,0.0314 0.18491,0.0528 0.03865,0.014 0.06701,0.0387 0.105664,0.0528 0.05887,0.0214 0.127798,0.0294 0.184909,0.0528 0.05857,0.024 0.105662,0.0587 0.158494,0.088 0.09227,0.0512 0.213127,0.11291 0.290574,0.17596 0.04021,0.0327 0.06832,0.0714 0.105663,0.10557 0.06632,0.0608 0.145001,0.11521 0.211326,0.17596 0.03735,0.0342 0.07157,0.0699 0.105663,0.10558 0.214229,0.22424 -0.06404,-0.0606 0.158494,0.19355 0.03199,0.0365 0.07453,0.0687 0.105663,0.10558 0.108655,0.12866 0.146894,0.2032 0.237742,0.33432 0.0165,0.0238 0.03397,0.0473 0.05283,0.0704 0.034,0.0415 0.08074,0.0789 0.105663,0.12317 0.02851,0.0506 0.02432,0.10773 0.05283,0.15836 0.02492,0.0443 0.08074,0.0789 0.105662,0.12318 0.02851,0.0506 0.03314,0.1059 0.05283,0.15836 0.102222,0.27236 -0.0048,-0.0272 0.132079,0.24634 0.0284,0.0567 0.02703,0.11867 0.05283,0.17596 0.01362,0.0302 0.03415,0.059 0.05283,0.088 0.0077,0.012 0.02397,0.0222 0.02641,0.0352 0.0065,0.0349 -0.0058,0.0706 0,0.10557 0.0079,0.0471 0.07925,0.0954 0.07925,0.14077 0,0.0131 -0.03119,0.0225 -0.02641,0.0352 0.006,0.0161 0.04795,0.0189 0.05283,0.0352 0.0055,0.0182 -0.02641,0.0342 -0.02641,0.0528 0,0.0889 0.0203,0.0135 0.05283,0.0352 0.0062,0.004 -0.0028,0.012 0,0.0176 0.0062,0.0124 0.02641,0.0221 0.02641,0.0352 0,0.008 -0.02641,0.009 -0.02641,0.0176 0,0.008 0.02085,0.0102 0.02641,0.0176 0.0039,0.005 0.0088,0.0176 0,0.0176 -0.0088,0 0,-0.0235 0,-0.0176 0,0.008 0.0043,0.0841 0,0.088 -0.02242,0.0199 -0.05283,0.0352 -0.07925,0.0528" />
    <path
       style="fill:none;fill-opacity:1;stroke:#ffffff;stroke-width:2.2249999;stroke-miterlimit:4;stroke-dasharray:none;stroke-opacity:1"
       id="path4688"
       sodipodi:type="arc"
       sodipodi:cx="97.264824"
       sodipodi:cy="235.78178"
       sodipodi:rx="7.3694587"
       sodipodi:ry="4.0483537"
       sodipodi:start="5.4367006"
       sodipodi:end="4.0683625"
       d="m 102.14797,232.74975 a 7.3694587,4.0483537 0 0 1 1.9545,4.54202 7.3694587,4.0483537 0 0 1 -7.133396,2.53511 7.3694587,4.0483537 0 0 1 -6.74032,-2.84122 7.3694587,4.0483537 0 0 1 2.611298,-4.44128"
       sodipodi:open="true" />
    <path
       style="fill:none;fill-opacity:1;stroke:#ffffff;stroke-width:4.23383665;stroke-miterlimit:4;stroke-dasharray:none;stroke-opacity:1"
       id="path886"
       sodipodi:type="arc"
       sodipodi:cx="97.264877"
       sodipodi:cy="223.13254"
       sodipodi:rx="16.042877"
       sodipodi:ry="13.867035"
       sodipodi:start="3.0351276"
       sodipodi:end="0.095993109"
       d="m 81.312836,224.60611 a 16.042877,13.867035 0 0 1 7.395277,-13.20346 16.042877,13.867035 0 0 1 16.970957,-0.0768 16.042877,13.867035 0 0 1 7.55483,13.13579"
       sodipodi:open="true" />
    <path
       style="fill:none;stroke:#ffffff;stroke-width:2.2249999;stroke-linecap:butt;stroke-linejoin:round;stroke-miterlimit:4;stroke-dasharray:none;stroke-opacity:1"
       d="m 92.715814,232.59357 c 1.981468,-0.50199 3.613653,-1.59475 3.307292,-4.23333 h 2.778123 c -0.343345,1.86701 1.521351,4.10104 3.505731,4.43177 l -0.0662,-0.0661"
       id="path4802"
       inkscape:connector-curvature="0"
       sodipodi:nodetypes="ccccc" />
    <ellipse
       transform="matrix(-0.86339555,0.50452762,0.50452762,0.86339555,0,0)"
       ry="4.179728"
       rx="1.473624"
       cy="239.49258"
       cx="35.369663"
       id="ellipse4871"
       style="fill:none;fill-opacity:1;stroke:#ffffff;stroke-width:2.2249999;stroke-miterlimit:4;stroke-dasharray:none;stroke-opacity:1" />
    <path
       sodipodi:open="true"
       d="m -113.39122,247.92685 a 8.6528511,12.561667 0 0 1 -7.53385,-6.26801 8.6528511,12.561667 0 0 1 0.008,-12.60594 8.6528511,12.561667 0 0 1 7.54138,-6.2489"
       sodipodi:end="4.7193703"
       sodipodi:start="1.5655603"
       sodipodi:ry="12.561667"
       sodipodi:rx="8.6528511"
       sodipodi:cy="235.36536"
       sodipodi:cx="-113.43652"
       sodipodi:type="arc"
       id="path4873"
       style="fill:none;fill-opacity:1;stroke:#ffffff;stroke-width:3.52777767;stroke-miterlimit:4;stroke-dasharray:none;stroke-opacity:1"
       transform="scale(-1,1)" />
    <path
       style="fill:none;fill-opacity:1;stroke:#ffffff;stroke-width:3.52777767;stroke-miterlimit:4;stroke-dasharray:none;stroke-opacity:1"
       id="path5318"
       sodipodi:type="arc"
       sodipodi:cx="81.284683"
       sodipodi:cy="235.37791"
       sodipodi:rx="8.6528511"
       sodipodi:ry="12.561667"
       sodipodi:start="1.5655603"
       sodipodi:end="4.7193703"
       d="m 81.32999,247.93941 a 8.6528511,12.561667 0 0 1 -7.533856,-6.26801 8.6528511,12.561667 0 0 1 0.0076,-12.60594 8.6528511,12.561667 0 0 1 7.54138,-6.24891"
       sodipodi:open="true" />
    <path
       inkscape:original-d="m 112.34776,214.07409 c 0,-0.088 0,-0.17595 0,-0.26393 0,-0.0528 -0.005,-0.10568 0,-0.15837 0.004,-0.0414 0.0213,-0.0818 0.0264,-0.12317 0.004,-0.0292 0,-0.0587 0,-0.088 0,-0.0587 0,-0.1173 0,-0.17596 0,-0.1173 0,-0.23461 0,-0.35191 0,-0.47509 0,-0.95018 0,-1.42527 0,-0.35778 0,-0.71556 0,-1.07335 0,-0.47724 0.0189,-0.51974 -0.0528,-0.98536 -0.0171,-0.11085 -0.14129,-0.50718 -0.1585,-0.56307 -0.0344,-0.11156 -0.0691,-0.22307 -0.10566,-0.33432 -0.0251,-0.0764 -0.0562,-0.15202 -0.0793,-0.22875 -0.0122,-0.0407 -0.009,-0.0834 -0.0264,-0.12317 -0.0268,-0.0606 -0.0724,-0.11681 -0.10567,-0.17596 -0.0195,-0.0347 -0.0368,-0.07 -0.0528,-0.10557 -0.0104,-0.0232 -0.0102,-0.0488 -0.0264,-0.0704 -0.0197,-0.0262 -0.0559,-0.0455 -0.0793,-0.0704 -0.0209,-0.0223 -0.0333,-0.0476 -0.0528,-0.0704 -0.031,-0.0362 -0.0583,-0.0617 -0.10566,-0.088 -0.0338,-0.0188 -0.069,-0.0365 -0.10567,-0.0528 -0.0328,-0.0146 -0.0719,-0.0217 -0.10566,-0.0352 -0.0272,-0.0109 -0.0487,-0.0294 -0.0792,-0.0352 -0.0339,-0.006 -0.0723,0.007 -0.10567,0 -0.0487,-0.0108 -0.0852,-0.0389 -0.13208,-0.0528 -0.0332,-0.01 -0.0717,-0.009 -0.10566,-0.0176 -0.0369,-0.009 -0.0672,-0.0295 -0.10566,-0.0352 -0.043,-0.006 -0.0888,0.005 -0.13208,0 -0.0169,-0.002 -0.21923,-0.0528 -0.26416,-0.0528 -0.0623,0 -0.12286,0.0142 -0.18491,0.0176 -0.0439,0.003 -0.088,0 -0.13208,0 -0.0969,0 -0.19371,0 -0.29057,0 -0.0528,0 -0.10652,-0.006 -0.15849,0 -0.0467,0.006 -0.0883,0.023 -0.13208,0.0352 -0.0619,0.0172 -0.12604,0.0314 -0.18491,0.0528 -0.0387,0.014 -0.067,0.0388 -0.10567,0.0528 -0.0589,0.0214 -0.1278,0.0294 -0.18491,0.0528 -0.0586,0.024 -0.10566,0.0587 -0.15849,0.088 -0.0923,0.0512 -0.21313,0.1129 -0.29057,0.17595 -0.0402,0.0327 -0.0683,0.0714 -0.10567,0.10558 -0.0663,0.0607 -0.145,0.11521 -0.21132,0.17596 -0.0374,0.0342 -0.0716,0.0699 -0.10567,0.10557 -0.21423,0.22425 0.064,-0.0606 -0.15849,0.19356 -0.032,0.0365 -0.0745,0.0687 -0.10566,0.10557 -0.10866,0.12867 -0.1469,0.20321 -0.23775,0.33433 -0.0165,0.0238 -0.034,0.0473 -0.0528,0.0704 -0.034,0.0415 -0.0807,0.0789 -0.10566,0.12317 -0.0285,0.0506 -0.0243,0.10773 -0.0528,0.15836 -0.0249,0.0443 -0.0807,0.0789 -0.10566,0.12317 -0.0285,0.0506 -0.0331,0.1059 -0.0528,0.15836 -0.10223,0.27237 0.005,-0.0272 -0.13208,0.24635 -0.0284,0.0567 -0.027,0.11866 -0.0528,0.17595 -0.0136,0.0302 -0.0342,0.0589 -0.0528,0.088 -0.008,0.012 -0.024,0.0222 -0.0264,0.0352 -0.007,0.0349 0.006,0.0706 0,0.10557 -0.008,0.0471 -0.0793,0.0954 -0.0793,0.14077 0,0.0131 0.0312,0.0225 0.0264,0.0352 -0.006,0.0161 -0.048,0.0189 -0.0528,0.0352 -0.005,0.0182 0.0264,0.0342 0.0264,0.0528 0,0.0889 -0.0203,0.0135 -0.0528,0.0352 -0.006,0.004 0.003,0.012 0,0.0176 -0.006,0.0124 -0.0264,0.022 -0.0264,0.0352 0,0.008 0.0264,0.009 0.0264,0.0176 0,0.008 -0.0208,0.0102 -0.0264,0.0176 -0.004,0.005 -0.009,0.0176 0,0.0176 0.009,0 0,-0.0234 0,-0.0176 0,0.008 -0.004,0.0841 0,0.088 0.0224,0.0199 0.0528,0.0352 0.0793,0.0528"
       inkscape:path-effect="#path-effect875"
       inkscape:connector-curvature="0"
       id="path873"
       d="m 112.34776,214.07409 c -0.0488,0 -0.096,-0.092 -0.14077,-0.26393 v 0 c -0.0114,-0.0357 -0.0302,-0.0948 -0.0353,-0.17523 l 0,0 c 0.002,-0.0714 0.0124,-0.11885 0.003,-0.11858 l 0,0 c -0.002,-0.027 -0.0113,-0.0552 -0.0169,-0.0842 -0.009,-0.0531 -0.0178,-0.10899 -0.0265,-0.16749 v 0 c -0.0149,-0.10791 -0.0293,-0.22542 -0.0433,-0.35191 v 0 c -0.0436,-0.39396 -0.0825,-0.87512 -0.11563,-1.42527 v 0 c -0.0201,-0.33375 -0.038,-0.69289 -0.0534,-1.07335 l 0,0 0,0 0,0 c -0.013,-0.30754 -0.0246,-0.62827 -0.0802,-0.91092 l 0,0 c -0.0229,-0.11849 -0.0926,-0.27626 -0.15557,-0.48959 l 0,0 c -0.0359,-0.1086 -0.072,-0.21759 -0.10881,-0.32347 l 0,0 c -0.0184,-0.0523 -0.0515,-0.13039 -0.0866,-0.24017 l 0,0 0,0 0,0 c -0.0447,-0.1598 -0.0349,-0.18256 -0.006,-0.0637 l 0,0 1e-5,0 0,0 c 0.0165,0.0214 -0.0205,-0.016 -0.0852,-0.12994 l 0,0 c -0.0121,-0.0337 -0.02,-0.0655 -0.0244,-0.095 l 0,0 c 0,0 0,0 0,0 0.0237,0.0507 0.0451,0.0685 0.0368,0.0593 -0.0161,-0.0162 -0.055,-0.0537 -0.0959,-0.12776 l 0,0 c 0,0 0,0 0,0 -0.01,-0.005 -0.008,-0.0136 -0.0118,-0.0197 0,0 0,0 0,0 -0.008,-0.0119 -0.0159,-0.0199 -0.0244,-0.0201 l 0,0 c -0.0214,-0.0117 -0.043,-0.0224 -0.0646,-0.0318 l 0,0 c 0.0651,0.0206 0.0514,0.0219 -0.0362,-0.0126 l 0,0 c 0.0737,-0.002 0.10708,-0.0147 0.0845,-0.0185 -0.0171,-0.003 -0.0568,0.001 -0.11862,7.9e-4 -0.0332,-2.9e-4 -0.0728,-0.002 -0.11856,-0.006 -0.18493,-0.0563 -0.23753,-0.0885 -0.17131,-0.063 0.0803,0.0144 0.052,0.0181 -0.0821,-0.0114 l 0,0 c -0.14674,-0.0404 -0.16398,-0.0586 -0.0542,-0.0255 l 0,0 c 0,0 0,0 0,0 0.0871,-0.001 0.0407,0.008 -0.13498,-0.006 0,0 0,0 0,0 l -0.003,-5.5e-4 c 0,0 0,0 0,0 -0.17161,-0.008 -0.23056,-0.0429 -0.18389,-0.0479 0,0 0,0 0,0 l 0,0 c 0,0 0,0 0,0 0.0184,-0.004 -0.0329,0.0109 -0.15322,0.0193 l 0,0 c 0,0 0,0 0,0 -0.0898,0.004 -0.14446,6.1e-4 -0.16377,-4.4e-4 0,0 0,0 0,0 l 0,0 c -0.0975,-0.001 -0.1944,-0.002 -0.29057,-0.004 l 0,0 c -0.0906,4.6e-4 -0.12361,-0.008 -0.097,-0.006 l 0,0 c 0.0399,-0.0127 0.021,-0.001 -0.058,0.0181 l 0,0 c 0,0 0,0 0,0 -0.0808,0.0219 -0.13124,0.0304 -0.14932,0.0376 0,0 0,0 0,0 l 0,0 c 0,0 0,0 0,0 0.0694,-0.0347 0.0363,-0.009 -0.10649,0.0505 l 0,0 c 0,0 0,0 0,0 -0.14117,0.0466 -0.19883,0.0488 -0.16751,0.0414 l 0,0 c 0,0 0,0 0,0 0.0135,-0.0132 -0.0204,0.0134 -0.1082,0.0589 0,0 0,0 0,0 l 0,0 c -0.11823,0.0659 -0.19794,0.0955 -0.22487,0.12002 l 0,0 c 0.0189,-0.024 -0.006,0.0103 -0.0877,0.0839 l 0,0 c -0.10475,0.0901 -0.18151,0.13868 -0.21764,0.16901 l 0,0 c 0,0 0,0 0,0 -0.0234,0.0185 -0.0521,0.0461 -0.0873,0.0798 l 0,0 c -0.0421,0.0435 -0.0652,0.061 -0.0646,0.06 l 0,0 c -0.004,0.005 -0.002,0.003 0.001,5.4e-4 0.003,-0.002 0.005,-0.004 0.008,-0.006 0.004,-0.003 0.006,-0.004 0.003,0.002 -0.008,0.0131 -0.0175,0.0222 -0.0274,0.0333 0,0 0,0 0,0 -0.0255,0.0288 -0.051,0.0558 -0.0754,0.0813 l 0,0 0,0 0,0 c -0.0733,0.0772 -0.12494,0.11529 -0.10546,0.0952 0,0 0,0 0,0 l 0,0 c -0.0688,0.0688 -0.14595,0.18237 -0.23888,0.30286 l 0,0 c 0,0 0,0 0,0 -0.0351,0.0451 -0.0627,0.0786 -0.0837,0.101 -0.0378,0.0406 -0.067,0.0471 -0.0564,0.0387 l 0,0 c 0.03,-0.0973 0.0262,-0.0309 -0.0614,0.15314 l 0,0 c -0.11703,0.16561 -0.17946,0.20187 -0.11487,0.11834 l 0,0 c 0.006,-0.0433 -0.002,0.01 -0.0526,0.1303 l 0,0 c -0.0122,0.0277 -0.0246,0.0555 -0.0379,0.0837 -0.005,0.0115 -0.009,0.0211 -0.0164,0.032 -0.007,0.0104 -0.004,-0.009 -0.0146,-0.001 0,0 0,0 0,0 -0.0118,0.009 -0.0175,0.0194 -0.0257,0.0313 -0.0211,0.0307 -0.0408,0.0636 -0.0602,0.0961 l 0,0 c 0,0 0,0 0,0 0.003,-0.0517 -0.006,0.0123 -0.0728,0.1558 l 0,0 c -0.0241,0.052 -0.0448,0.0697 -0.0582,0.065 l 0,0 c -0.002,-0.0918 -0.0119,-0.0512 -0.0123,-0.0833 0,0 0,0 0,0 -0.004,0.0234 0.008,0.0802 4.3e-4,0.16147 l 0,0 c 0,0 0,0 0,0 -0.15256,0.30334 -0.2555,0.28551 -0.22103,0.11365 l 0,0 c -0.002,-0.009 0.0264,-0.0174 0.0185,-0.0196 -0.01,0.001 -0.0555,-0.007 -0.0646,2e-4 -0.01,0.01 0.0167,0.0205 0.0112,0.0359 -0.002,0.0117 -0.004,0.0224 -0.009,0.0342 -0.0105,0.0238 -0.0316,-0.0122 -0.0589,-0.002 -0.0185,0.01 -0.0167,0.0235 -0.0269,0.0362 0,0 0,0 0,0 0,0 0,0 0,0 -0.009,0.005 -0.0312,0.008 -0.0332,0.0157 -0.002,0.003 0.0224,-9e-5 0.0208,0.005 -0.002,0.005 -0.0246,0.006 -0.0316,0.0127 -0.007,0.006 -0.0118,0.0183 -0.006,0.0202 0.006,0.002 -0.004,-0.0185 -0.007,-0.007 -7.9e-4,0.003 -0.002,0.0114 -0.003,0.0209 -0.002,0.0194 -0.005,0.0473 -0.007,0.0643 -0.001,0.0125 -0.002,0.0211 -0.003,0.0248 0.0349,0.0625 0.0576,0.0892 0.0373,0.1198 -0.0125,0.0188 -0.063,0.0347 -0.12133,0.0142 -0.003,0.002 -0.005,-0.002 -0.006,-0.01 -0.002,-0.0116 -0.003,-0.0291 -0.004,-0.0441 -5.4e-4,-0.007 -0.001,-0.0116 -0.002,-0.0123 -0.003,-5e-4 0.005,0.0262 -0.007,0.0286 -0.0106,0.002 -0.008,-0.009 -0.006,-0.015 0.004,-0.007 0.0231,-0.0111 0.0212,-0.0225 -0.002,-0.0124 -0.0302,-0.0174 -0.0321,-0.0298 -0.002,-0.0178 0.016,-0.0339 0.0196,-0.0547 0,0 0,0 0,0 0,0 0,0 0,0 -0.004,0.002 -0.0207,-3.9e-4 -0.0217,-0.002 0.0231,-0.009 0.0349,0.0283 0.0365,0.003 7.9e-4,-0.0125 -0.002,-0.0245 -0.004,-0.0384 -0.005,-0.0209 -0.0421,-0.0424 -0.0416,-0.0697 2.8e-4,-0.0243 0.0383,-0.0386 0.041,-0.0702 0.001,-0.0271 -0.0324,-0.0545 -0.0344,-0.09 l 0,0 c 0.0364,-0.28988 0.0656,-0.34998 -0.0624,-0.16789 0,0 0,0 0,0 l 0,0 c 0.004,0.0128 -0.009,-0.003 4.3e-4,-0.0497 0,0 0,0 0,0 0.005,-0.0236 0.0253,-0.0717 0.0405,-0.15366 l 0,0 c 0.0202,-0.0575 0.0376,-0.0927 0.0445,-0.10477 l 0.003,-0.006 c -0.0142,0.0282 -0.0278,-0.026 0.0328,-0.1961 0,0 0,0 0,0 l 0,0 c 0.0116,-0.0294 0.0241,-0.0602 0.0391,-0.0904 0.006,-0.0117 0.009,-0.0224 0.019,-0.0313 0,0 0,0 0,0 0.008,-0.008 0.004,0.0109 0.009,-7e-5 0.005,-0.0114 0.008,-0.0218 0.0118,-0.0342 0.009,-0.0266 0.0214,-0.068 0.03,-0.0946 l 0,0 c -0.0115,0.0165 -0.009,-0.0432 0.053,-0.18642 l 0,0 c 0.11115,-0.16902 0.16529,-0.20578 0.0965,-0.128 l 0,0 c -0.0365,0.0958 -0.038,0.0246 0.0442,-0.16358 l 0,0 c 0.0621,-0.10091 0.12406,-0.16439 0.1549,-0.20763 0.0163,-0.0235 0.0237,-0.037 0.0219,-0.0398 0,0 0,0 0,0 l 0,0 c 0.0559,-0.0941 0.12837,-0.22478 0.23662,-0.3658 l 0,0 c 0,0 0,0 0,0 0.077,-0.0891 0.11915,-0.12416 0.10586,-0.11595 l 0,0 0,0 0,0 c 0.0214,-0.0267 0.0421,-0.0527 0.0611,-0.0783 0,0 0,0 0,0 0.007,-0.01 0.0142,-0.0174 0.019,-0.0285 0.002,-0.004 -0.002,-0.003 -0.007,9.4e-4 -0.004,0.003 -0.007,0.006 -0.0112,0.008 -0.005,0.004 -0.009,0.006 -0.006,0.003 l 0,0 c 0.0527,-0.0657 0.0901,-0.10447 0.10607,-0.12179 l 0,0 c 0.033,-0.0377 0.0737,-0.0823 0.12406,-0.13134 0,0 0,0 0,0 l 0,0 c 0.0975,-0.0921 0.17295,-0.14779 0.205,-0.18291 l 0,0 c -0.007,0.006 0.0259,-0.039 0.12363,-0.12726 l 0,0 c 0.14772,-0.11767 0.2727,-0.18579 0.35627,-0.23188 l 0,0 c 0,0 0,0 0,0 0.0171,-0.0127 0.0829,-0.058 0.20878,-0.11714 0,0 0,0 0,0 l 0,0 c 0.14933,-0.0557 0.22216,-0.0667 0.20231,-0.0642 0,0 0,0 0,0 l 0,0 c -0.07,0.0332 -0.0378,0.006 0.10485,-0.0551 0,0 0,0 0,0 l 0,0 c 0,0 0,0 0,0 0.10229,-0.0366 0.17655,-0.0553 0.2205,-0.068 0,0 0,0 0,0 l 0,0 c 0.008,-0.005 0.0755,-0.028 0.20614,-0.0523 l 0,0 c 0.131,-0.0106 0.20468,-0.007 0.22,-0.006 l 0,0 c 0.0962,-0.001 0.19304,-0.003 0.29057,-0.004 l 0,0 c 0,0 0,0 0,0 0.0684,-0.001 0.10221,0.002 0.10039,-4.4e-4 0,0 0,0 0,0 l 0,0 c 0.003,0.002 0.0738,-0.012 0.2166,-0.0159 0,0 0,0 0,0 l 0,0 c 0,0 0,0 0,0 0.22098,-0.005 0.33619,0.0321 0.33775,0.0566 0,0 0,0 0,0 l 0,0 c 0.003,5.5e-4 0.003,5.5e-4 0.003,5.5e-4 -0.0902,-0.004 -0.0436,-0.0166 0.12917,-0.006 0,0 10e-6,0 10e-6,0 l 0,0 c 0.18208,0.0436 0.23257,0.0679 0.15712,0.0449 l 0,0 c -0.0648,-0.0119 -0.0198,-0.0113 0.12921,0.0238 0.15796,0.0527 0.18397,0.0779 0.0928,0.0426 -0.0216,4.7e-4 -0.0365,-0.001 -0.045,-0.003 -0.0159,-0.004 -0.009,-0.008 0.0191,-0.003 0.0386,0.008 0.11483,0.0319 0.24289,0.0519 l 0,0 c -0.0163,-0.006 0.04,0.006 0.17511,0.0578 l 0,0 c 0.0505,0.0226 0.0995,0.0473 0.14677,0.0738 l 0,0 c 0.0724,0.0447 0.13477,0.0979 0.18696,0.15589 0,0 0,1e-5 0,1e-5 0.0357,0.0395 0.0618,0.0817 0.0938,0.12109 0,0 0,0 0,0 l 0,0 c 0.003,-0.0278 0.0306,-0.0282 0.059,0.008 0.0278,0.0387 0.0487,0.10769 0.0932,0.20471 0,0 0,0 0,0 l 0,0 c 0.028,0.0425 0.0548,0.0814 0.0812,0.11614 l 0,0 c 0.003,0.006 0.0545,0.0759 0.12615,0.22198 l 0,0 1e-5,0 0,0 c 0.0627,0.19684 0.067,0.26153 0.0466,0.18268 l 0,0 0,0 0,0 c 0.0117,0.0457 0.0403,0.11723 0.072,0.21733 l 0,0 c 0.0366,0.11755 0.0704,0.23334 0.10251,0.34517 l 0,0 c 0.0545,0.16788 0.12572,0.37511 0.16143,0.63655 l 0,0 c 0.0469,0.3837 0.0384,0.74726 0.0254,1.0598 l 0,0 0,0 0,0 c -0.0154,0.38046 -0.0333,0.7396 -0.0534,1.07335 v 0 c -0.0331,0.55015 -0.0721,1.03131 -0.11563,1.42527 v 0 c -0.014,0.12649 -0.0284,0.244 -0.0433,0.35191 l 0,0 c -0.009,0.0652 -0.0176,0.12668 -0.0265,0.18443 -0.006,0.0334 -0.007,0.0611 -0.0169,0.0918 l 0,0 c -0.0202,0.087 -0.0451,0.12192 -0.0501,0.12776 l 0,0 c -0.0147,0.0291 -0.0237,0.0905 -0.0353,0.14151 v 0 c -0.0448,0.17196 -0.092,0.26393 -0.14077,0.26393 z"
       style="fill:#ffffff;fill-opacity:1;stroke:#ffffff;stroke-width:1.5;stroke-linecap:butt;stroke-linejoin:round;stroke-miterlimit:4;stroke-dasharray:none;stroke-opacity:1" />
  </g>
</svg>
